<svg width="205" height="60" viewBox="0 0 205 60" fill="none" xmlns="http://www.w3.org/2000/svg">
<path d="M197.078 59.2556H8.56664C7.65812 59.2556 6.75852 59.0764 5.9193 58.7284C5.08008 58.3804 4.31771 57.8703 3.67581 57.2274C3.03391 56.5845 2.52507 55.8213 2.17841 54.9815C1.83175 54.1417 1.65407 53.2418 1.65553 52.3333V7.66667C1.65553 3.85555 4.75553 0.755554 8.56664 0.755554H197.067C200.889 0.755554 203.978 3.86667 203.978 7.66667V52.3333C203.978 56.1444 200.878 59.2556 197.067 59.2556H197.078Z" fill="black"/>
<path d="M197.078 60H8.56681C7.56001 60 6.56307 59.8017 5.63291 59.4164C4.70274 59.0311 3.85758 58.4664 3.14566 57.7545C1.70788 56.3167 0.900146 54.3667 0.900146 52.3333V7.66667C0.900144 5.63526 1.70635 3.6869 3.14173 2.24944C4.57711 0.811979 6.5243 0.00294406 8.5557 0L197.067 0C199.1 0 201.05 0.807736 202.488 2.24551C203.926 3.68329 204.733 5.63334 204.733 7.66667V52.3333C204.733 56.5556 201.289 60 197.067 60H197.078ZM8.56681 1.52222C6.93515 1.52221 5.37 2.16886 4.21416 3.32053C3.05832 4.47221 2.40603 6.03502 2.40015 7.66667V52.3333C2.40602 53.9631 3.05678 55.5242 4.21022 56.6756C5.36366 57.8269 6.92597 58.4749 8.5557 58.4778H197.067C198.698 58.4748 200.262 57.8254 201.416 56.6716C202.57 55.5179 203.219 53.9539 203.222 52.3222V7.66667C203.219 6.03501 202.57 4.47103 201.416 3.31728C200.262 2.16352 198.698 1.51405 197.067 1.51111H8.56681V1.52222Z" fill="#A7A9AC"/>
<path d="M103.733 32.8111C102.886 32.7962 102.044 32.9515 101.257 33.268C100.471 33.5845 99.756 34.0556 99.155 34.6535C98.554 35.2514 98.0792 35.9638 97.7587 36.7486C97.4381 37.5334 97.2784 38.3746 97.2889 39.2222C97.2784 40.0699 97.4381 40.911 97.7587 41.6958C98.0792 42.4806 98.554 43.193 99.155 43.7909C99.756 44.3888 100.471 44.8599 101.257 45.1764C102.044 45.4929 102.886 45.6483 103.733 45.6333C104.58 45.6468 105.421 45.4903 106.206 45.1731C106.991 44.856 107.705 44.3846 108.304 43.7869C108.904 43.1891 109.378 42.4772 109.698 41.6932C110.018 40.9091 110.177 40.0689 110.167 39.2222C110.177 38.3746 110.017 37.5334 109.697 36.7486C109.376 35.9638 108.902 35.2514 108.301 34.6535C107.7 34.0556 106.985 33.5845 106.198 33.268C105.412 32.9515 104.57 32.7962 103.722 32.8111H103.733ZM103.733 43.1111C101.789 43.1111 100.111 41.5111 100.111 39.2222C100.111 36.9222 101.789 35.3333 103.733 35.3333C105.667 35.3333 107.344 36.9111 107.344 39.2222C107.344 41.5111 105.678 43.1111 103.733 43.1111ZM89.7 32.8111C88.8524 32.7962 88.0105 32.9515 87.224 33.268C86.4376 33.5845 85.7227 34.0556 85.1217 34.6535C84.5207 35.2514 84.0459 35.9638 83.7253 36.7486C83.4048 37.5334 83.245 38.3746 83.2556 39.2222C83.245 40.0699 83.4048 40.911 83.7253 41.6958C84.0459 42.4806 84.5207 43.193 85.1217 43.7909C85.7227 44.3888 86.4376 44.8599 87.224 45.1764C88.0105 45.4929 88.8524 45.6483 89.7 45.6333C90.5476 45.6483 91.3896 45.4929 92.176 45.1764C92.9625 44.8599 93.6773 44.3888 94.2783 43.7909C94.8793 43.193 95.3542 42.4806 95.6747 41.6958C95.9953 40.911 96.155 40.0699 96.1445 39.2222C96.155 38.3746 95.9953 37.5334 95.6747 36.7486C95.3542 35.9638 94.8793 35.2514 94.2783 34.6535C93.6773 34.0556 92.9625 33.5845 92.176 33.268C91.3896 32.9515 90.5476 32.7962 89.7 32.8111ZM89.7 43.1111C87.7556 43.1111 86.0778 41.5111 86.0778 39.2222C86.0778 36.9222 87.7556 35.3333 89.7 35.3333C91.6334 35.3333 93.3111 36.9111 93.3111 39.2222C93.3111 41.5111 91.6445 43.1111 89.7 43.1111ZM73 34.7778V37.5H79.5111C79.4146 38.7759 78.89 39.9818 78.0222 40.9222C77.3697 41.5844 76.5856 42.1024 75.7206 42.4431C74.8556 42.7837 73.9288 42.9394 73 42.9C69 42.9 65.8667 39.6778 65.8667 35.6778C65.8489 34.2764 66.2436 32.9007 67.0018 31.722C67.76 30.5433 68.8482 29.6136 70.1308 29.0487C71.4134 28.4837 72.8338 28.3085 74.2153 28.5449C75.5967 28.7812 76.8781 29.4186 77.9 30.3778L79.8222 28.4555C78.9253 27.5667 77.8597 26.866 76.6881 26.3947C75.5166 25.9234 74.2627 25.691 73 25.7111C70.3472 25.7109 67.8011 26.7555 65.9128 28.6188C64.0246 30.4821 62.9462 33.0141 62.9111 35.6667C62.9491 38.3173 64.0288 40.8465 65.9167 42.7074C67.8046 44.5683 70.3491 45.6114 73 45.6111C74.289 45.6644 75.5746 45.4433 76.7718 44.9625C77.9689 44.4818 79.0504 43.7522 79.9445 42.8222C81.7445 41.0222 82.3 38.5 82.3 36.4555C82.3 35.8333 82.2556 35.2333 82.1445 34.7667H73V34.7778ZM141.267 36.8889C140.733 35.4555 139.1 32.8111 135.778 32.8111C132.478 32.8111 129.733 35.4111 129.733 39.2222C129.715 40.0653 129.867 40.9034 130.18 41.6864C130.493 42.4695 130.961 43.1814 131.555 43.7798C132.149 44.3782 132.858 44.8507 133.639 45.1691C134.42 45.4876 135.257 45.6455 136.1 45.6333C137.155 45.6382 138.195 45.3809 139.126 44.8844C140.057 44.3879 140.85 43.6678 141.433 42.7889L139.256 41.3444C138.927 41.8865 138.464 42.3342 137.911 42.6439C137.358 42.9535 136.734 43.1145 136.1 43.1111C134.656 43.1111 133.644 42.4444 132.989 41.1667L141.556 37.6333L141.267 36.8889ZM132.533 39.0222C132.503 38.5565 132.566 38.0895 132.719 37.6484C132.872 37.2074 133.111 36.8012 133.422 36.4536C133.733 36.106 134.111 35.8239 134.533 35.624C134.954 35.424 135.412 35.3101 135.878 35.2889C136.989 35.2889 137.944 35.8444 138.256 36.6444L132.522 39.0222H132.533ZM125.567 45.2444H128.4V26.4111H125.578V45.2444H125.567ZM120.944 34.2444H120.856C120.428 33.7803 119.907 33.4124 119.327 33.1652C118.746 32.9181 118.12 32.7974 117.489 32.8111C115.825 32.869 114.249 33.5756 113.099 34.7798C111.949 35.984 111.315 37.5904 111.333 39.2555C111.324 40.9099 111.961 42.5025 113.109 43.6939C114.257 44.8853 115.824 45.5812 117.478 45.6333C119.011 45.6333 120.222 44.9444 120.856 44.1778H120.944V45.1C120.944 47.5444 119.633 48.8667 117.533 48.8667C116.828 48.8489 116.144 48.6218 115.568 48.2142C114.993 47.8066 114.551 47.237 114.3 46.5778L111.844 47.6C112.308 48.7209 113.094 49.6787 114.103 50.3514C115.112 51.0242 116.298 51.3814 117.511 51.3778C120.822 51.3778 123.611 49.4444 123.611 44.7111V33.1889H120.944V34.2333V34.2444ZM117.722 43.1111C115.789 43.1111 114.167 41.4778 114.167 39.2555C114.167 36.9889 115.789 35.3444 117.722 35.3444C119.644 35.3444 121.144 36.9889 121.144 39.2555C121.144 41.4778 119.633 43.1111 117.722 43.1111ZM154.456 26.4111H147.722V45.2444H150.533V38.1111H154.456C157.567 38.1111 160.644 35.8555 160.644 32.2667C160.644 28.6778 157.578 26.4111 154.456 26.4111ZM154.533 35.4889H150.533V29.0333H154.533C155.398 29.0244 156.231 29.3586 156.849 29.9626C157.468 30.5665 157.822 31.3911 157.833 32.2555C157.833 33.7111 156.633 35.4778 154.533 35.4778V35.4889ZM171.9 32.7778C169.867 32.7778 167.756 33.6667 166.889 35.6667L169.378 36.7C169.911 35.6667 170.911 35.3222 171.944 35.3222C173.389 35.3222 174.878 36.2 174.911 37.7555V37.9444C174.008 37.4664 173 37.2183 171.978 37.2222C169.289 37.2222 166.556 38.7 166.556 41.4667C166.556 43.9778 168.756 45.6 171.222 45.6C173.111 45.6 174.156 44.7444 174.811 43.7555H174.911V45.2H177.622V37.9778C177.622 34.6444 175.133 32.7778 171.9 32.7778ZM171.567 43.1111C170.644 43.1111 169.367 42.6444 169.367 41.5C169.367 40.0555 170.967 39.4889 172.344 39.4889C173.567 39.4889 174.156 39.7444 174.9 40.1111C174.803 40.9305 174.411 41.6866 173.798 42.2386C173.185 42.7905 172.392 43.1006 171.567 43.1111ZM187.511 33.1889L184.289 41.3555H184.189L180.856 33.1889H177.822L182.822 44.6L179.978 50.9555H182.911L190.622 33.1889H187.5H187.511ZM162.178 45.2444H165V26.4111H162.189V45.2444H162.178Z" fill="white"/>
<path d="M16.7887 11.4111C16.3443 11.8667 16.0999 12.5889 16.0999 13.5222V46.8222C16.0999 47.7555 16.3554 48.4667 16.7887 48.9333L16.8999 49.0444L35.5554 30.4V29.9555L16.8999 11.3111L16.7887 11.4111Z" fill="#5BC9F4"/>
<path d="M41.7776 36.6222L35.5554 30.4V29.9556L41.7776 23.7333L41.911 23.8222L49.2776 28.0111C51.3888 29.2111 51.3888 31.1556 49.2776 32.3556L41.911 36.5333L41.7776 36.6222Z" fill="url(#paint0_linear_191_1308)"/>
<path d="M41.9113 36.5333L35.5557 30.1778L16.7891 48.9333C17.478 49.6667 18.6224 49.7556 19.9224 49.0333L41.9224 36.5333H41.9113Z" fill="url(#paint1_linear_191_1308)"/>
<path d="M41.9112 23.8111L19.9112 11.3333C18.6223 10.6111 17.4778 10.6889 16.8 11.4333L35.5556 30.1889L41.9112 23.8222V23.8111Z" fill="url(#paint2_linear_191_1308)"/>
<path d="M70.1445 12.4778C69.5595 11.9494 68.7995 11.6565 68.0112 11.6555C67.5711 11.6613 67.1365 11.7544 66.7327 11.9295C66.3289 12.1046 65.9639 12.3582 65.6589 12.6756C65.3539 12.993 65.1151 13.3678 64.9562 13.7783C64.7973 14.1887 64.7216 14.6267 64.7334 15.0667C64.7231 15.5052 64.8 15.9414 64.9597 16.35C65.1193 16.7585 65.3586 17.1313 65.6636 17.4466C65.9685 17.7619 66.3331 18.0134 66.7361 18.1866C67.1391 18.3598 67.5725 18.4513 68.0112 18.4555C69.6001 18.4555 70.7667 17.5222 70.8445 16.0667H68.3223V15.0222H72.2112C72.2112 18.1333 70.5445 19.6111 68.0112 19.6111C67.4165 19.6112 66.8278 19.4928 66.2794 19.263C65.731 19.0331 65.2339 18.6963 64.8171 18.2722C64.4002 17.8481 64.0721 17.3453 63.8517 16.793C63.6313 16.2407 63.5231 15.6501 63.5334 15.0555C63.5229 14.1849 63.7665 13.3301 64.2344 12.5957C64.7022 11.8614 65.374 11.2794 66.1675 10.9209C66.961 10.5625 67.8418 10.4432 68.7021 10.5776C69.5624 10.712 70.3648 11.0944 71.0112 11.6778L70.1445 12.4778ZM79.089 10.6111V11.7222H75.0334V14.5555H78.5667V15.6778H75.0334V18.3555H79.2112V19.4667H73.8334V10.6222H79.089V10.6111ZM86.8445 10.6111V11.7444H84.1556V19.4778H82.9445V11.7444H80.2556V10.6111H86.8445ZM92.5889 10.6111V19.4778H91.389V10.6111H92.5889ZM100.733 10.6111V11.7444H98.0667V19.4778H96.8445V11.7444H94.1556V10.6111H100.745H100.733ZM109.178 10.5111C109.775 10.5081 110.366 10.6242 110.918 10.8526C111.47 11.081 111.97 11.4172 112.39 11.8414C112.81 12.2656 113.142 12.7694 113.365 13.3232C113.588 13.877 113.698 14.4697 113.689 15.0667C113.689 16.2587 113.215 17.4018 112.373 18.2447C111.53 19.0876 110.387 19.5611 109.194 19.5611C108.002 19.5611 106.859 19.0876 106.016 18.2447C105.174 17.4018 104.7 16.2587 104.7 15.0667C104.7 12.5444 106.667 10.5111 109.178 10.5111ZM109.178 18.4444C109.617 18.4431 110.052 18.3542 110.457 18.183C110.862 18.0117 111.229 17.7616 111.536 17.4472C111.843 17.1328 112.084 16.7604 112.246 16.3517C112.408 15.943 112.487 15.5061 112.478 15.0667C112.478 13.1778 111.056 11.6667 109.178 11.6667C108.738 11.6709 108.304 11.7627 107.9 11.9366C107.496 12.1105 107.131 12.3631 106.826 12.6795C106.521 12.996 106.282 13.3701 106.123 13.78C105.964 14.1898 105.888 14.6272 105.9 15.0667C105.9 16.9555 107.333 18.4444 109.178 18.4444ZM120.767 19.4778L116.722 12.8V19.4667H115.522V10.6222H116.7L120.7 17.2444V10.6111H121.9V19.4778H120.756H120.767Z" fill="white"/>
<defs>
<linearGradient id="paint0_linear_191_1308" x1="47.911" y1="30.1778" x2="11.4776" y2="30.1778" gradientUnits="userSpaceOnUse">
<stop stop-color="#FEE000"/>
<stop offset="0.19" stop-color="#FCCF0B"/>
<stop offset="0.55" stop-color="#FAB318"/>
<stop offset="0.83" stop-color="#F9A21B"/>
<stop offset="1" stop-color="#F99B1C"/>
</linearGradient>
<linearGradient id="paint1_linear_191_1308" x1="38.4557" y1="33.6333" x2="4.20017" y2="67.8889" gradientUnits="userSpaceOnUse">
<stop stop-color="#EF4547"/>
<stop offset="1" stop-color="#C6186D"/>
</linearGradient>
<linearGradient id="paint2_linear_191_1308" x1="4.04449" y1="-7.68889" x2="32.0112" y2="20.2778" gradientUnits="userSpaceOnUse">
<stop stop-color="#279E6F"/>
<stop offset="0.32" stop-color="#4DAB6D"/>
<stop offset="0.74" stop-color="#6ABA6A"/>
<stop offset="1" stop-color="#74C169"/>
</linearGradient>
</defs>
</svg>
