<svg width="204" height="60" viewBox="0 0 204 60" fill="none" xmlns="http://www.w3.org/2000/svg">
<path d="M196.222 59.2222H7.66672C5.83967 59.2222 4.08746 58.4964 2.79554 57.2045C1.50362 55.9126 0.777832 54.1604 0.777832 52.3333V7.66666C0.777832 3.88888 3.88894 0.777771 7.66672 0.777771H196.222C200 0.777771 203.111 3.88888 203.111 7.66666V52.3333C203.111 56.1111 200 59.2222 196.222 59.2222Z" fill="black"/>
<path d="M196.222 60H7.66667C5.64228 59.9713 3.70888 59.1543 2.27728 57.7227C0.845675 56.2911 0.028719 54.3577 0 52.3333V7.66667C0.028719 5.64228 0.845675 3.70888 2.27728 2.27728C3.70888 0.845675 5.64228 0.028719 7.66667 0L196.222 0C200.444 0 203.889 3.33333 203.889 7.66667V52.3333C203.86 54.3768 203.027 56.3267 201.572 57.7614C200.116 59.196 198.155 60.0002 196.111 60H196.222ZM7.66667 1.55556C4.33333 1.55556 1.55556 4.33333 1.55556 7.66667V52.3333C1.55556 55.6667 4.33333 58.4444 7.66667 58.4444H196.222C199.556 58.4444 202.333 55.6667 202.333 52.3333V7.66667C202.333 4.33333 199.556 1.55556 196.222 1.55556H7.66667Z" fill="#A7A9AC"/>
<path d="M67.7778 17.1111L67 19.8889H65.1111L68.3333 10H70.5555L73.8889 19.8889H71.8889L71 17.1111H67.8889H67.7778ZM70.6667 15.6667L70 13.3333L69.5555 11.5556L69 13.3333L68.2222 15.7778H70.7778L70.6667 15.6667ZM76.5555 12.7778L77.6667 16.3333L78.1111 18.1111L78.6667 16.3333L79.7778 12.7778H81.6667L79 19.8889H77.2222L74.5555 12.7778H76.6667H76.5555ZM88.8889 18.1111V20H87.3333V19.2222H87.2222C86.7778 19.7778 86.1111 20.1111 85 20.1111C83.6667 20.1111 82.7778 19 82.7778 18C82.7778 16.2222 84.4444 15.3333 87.1111 15.3333V15.2222C87.1111 14.7778 86.8889 14 85.6667 14C84.8889 14 84.2222 14.2222 83.6667 14.4444L83.3333 13.3333C83.8889 13 84.7778 12.6667 85.8889 12.6667C88.2222 12.6667 88.8889 14.1111 88.8889 15.6667V18.2222V18.1111ZM87.1111 16.3333C85.8889 16.3333 84.6666 16.6667 84.6666 17.6667C84.6666 18.4444 85.1111 18.7778 85.6667 18.7778C86.4444 18.7778 86.8889 18.2222 87.1111 17.6667V16.3333ZM92.2222 11.6667C91.9947 11.6425 91.7824 11.5411 91.6206 11.3794C91.4589 11.2176 91.3575 11.0053 91.3333 10.7778C91.3333 10.2222 91.7778 9.66666 92.3333 9.66666C93 9.66666 93.3333 10.2222 93.4444 10.7778C93.4444 11.2222 93 11.6667 92.3333 11.6667H92.2222ZM91.4444 19.8889V12.7778H93.2222V19.8889H91.4444ZM95.7778 9.44444H97.5555V20H95.7778V9.44444ZM105.778 18.1111V20H104.222L104.111 19.2222C103.667 19.7778 102.889 20.1111 101.889 20.1111C100.556 20.1111 99.6666 19 99.6666 18C99.6666 16.2222 101.333 15.3333 103.889 15.3333V15.2222C103.889 14.7778 103.778 14 102.444 14C101.778 14 101 14.2222 100.556 14.4444L100.222 13.3333C100.778 13 101.667 12.6667 102.778 12.6667C105 12.6667 105.778 14.1111 105.778 15.6667V18.2222V18.1111ZM104 16.3333C102.667 16.3333 101.444 16.6667 101.444 17.6667C101.444 18.4444 101.889 18.7778 102.556 18.7778C103.222 18.7778 103.667 18.2222 103.889 17.6667V16.3333H104ZM108.222 9.44444H110.111V13.6667C110.556 13 111.222 12.5556 112.333 12.5556C114.111 12.5556 115.333 14 115.333 16.2222C115.333 18.7778 113.778 20 112.111 20C111.222 20 110.333 19.6667 109.889 18.8889L109.778 19.8889H108.222V9.44444ZM110.111 16.8889V17.3333C110.333 18.1111 110.889 18.5556 111.667 18.5556C112.778 18.5556 113.556 17.6667 113.556 16.3333C113.556 15 112.889 14 111.778 14C111 14 110.333 14.5556 110.111 15.3333V16.8889ZM117.444 9.44444H119.222V20H117.444V9.44444ZM123.111 16.7778C123.111 18.1111 124.222 18.6667 125.333 18.6667C126.111 18.6667 126.778 18.5556 127.333 18.3333L127.556 19.5556C127 19.7778 126.111 20 125.111 20C122.778 20 121.444 18.5556 121.444 16.4444C121.444 14.4444 122.556 12.5556 124.889 12.5556C127.111 12.5556 128 14.4444 128 16V16.7778H123.111ZM126.222 15.5556C126.222 14.8889 126 13.7778 124.778 13.7778C123.667 13.7778 123.222 14.8889 123.111 15.5556H126.222ZM136.889 20C134.889 20 133.222 18.6667 133.222 16.3333C133.222 14 134.778 12.5556 137 12.5556C139.111 12.5556 140.444 14.1111 140.444 16.2222C140.444 18.8889 138.667 20 136.889 20ZM136.889 18.6667C138 18.6667 138.667 17.7778 138.667 16.2222C138.667 15.1111 138.111 13.8889 136.889 13.8889C135.667 13.8889 135.111 15.1111 135.111 16.3333C135.111 17.6667 135.778 18.6667 136.889 18.6667ZM142.667 14.8889L142.556 12.6667H144.111V13.7778H144.222C144.556 13.2222 145.333 12.6667 146.444 12.6667C147.778 12.6667 149.111 13.3333 149.111 15.6667V19.8889H147.222V15.7778C147.222 14.7778 146.889 14 145.889 14C145.222 14 144.778 14.5556 144.556 15.1111L144.444 15.6667V19.8889H142.667V14.8889ZM157.333 10.8889V12.7778H159.111V14.1111H157.333V17.2222C157.333 18.1111 157.556 18.5556 158.222 18.5556L159 18.4444V19.7778L157.667 20C157 20 156.556 19.7778 156.111 19.4444C155.778 19 155.556 18.3333 155.556 17.4444V14.1111H154.556V12.6667H155.667V11.4444L157.333 10.8889ZM161.111 9.44444H162.889V13.6667L163.778 12.8889C164.111 12.6667 164.556 12.5556 165 12.5556C166.222 12.5556 167.556 13.3333 167.556 15.6667V19.8889H165.556V15.8889C165.556 14.7778 165.222 14 164.222 14C163.556 14 163.111 14.5556 162.778 15.1111V19.8889H160.889V9.44444H161.111ZM171.333 16.7778C171.333 18.1111 172.444 18.6667 173.556 18.6667C174.333 18.6667 174.889 18.5556 175.556 18.3333L175.778 19.5556C175.111 19.7778 174.333 20 173.333 20C171 20 169.667 18.5556 169.667 16.4444C169.667 14.4444 170.778 12.5556 173 12.5556C175.444 12.5556 176.222 14.4444 176.222 16L176.111 16.7778H171.333ZM174.444 15.5556C174.444 14.8889 174.222 13.7778 173 13.7778C171.889 13.7778 171.444 14.8889 171.333 15.5556H174.444ZM45.5555 29.4444C45.5555 24.5556 49.4444 22.1111 49.6667 22C47.4444 18.6667 43.8889 18.2222 42.5555 18.2222C39.6667 17.8889 36.7778 20 35.2222 20C33.6667 20 31.3333 18.2222 28.7778 18.3333C25.5555 18.3333 22.5555 20.2222 20.8889 23.1111C17.5555 29.1111 20 37.7778 23.3333 42.5555C25 45 26.8889 47.5555 29.3333 47.4444C31.7778 47.4444 32.6667 45.8889 35.6667 45.8889C38.6667 45.8889 39.5555 47.4444 42.1111 47.4444C44.7778 47.4444 46.3333 45.1111 48 42.6667C49.8889 40 50.6667 37.3333 50.6667 37.1111C50.6667 37.1111 45.5555 35.2222 45.4444 29.3333L45.5555 29.4444ZM40.6667 15.1111C42 13.4444 42.8889 11.1111 42.6667 8.88889C40.4435 9.08241 38.3776 10.1154 36.8889 11.7778C36.176 12.5963 35.6322 13.548 35.2889 14.5778C34.9456 15.6076 34.8097 16.6952 34.8889 17.7778C37.1111 18 39.3333 16.6667 40.6667 15.1111ZM81.1111 47.1111H77.5555L75.7778 41.1111H69.2222L67.4444 47H64.1111L70.5555 27H74.5555L81 47L81.1111 47.1111ZM75.2222 38.7778L73.3333 33.3333L72.3333 29.5556L71.3333 33.3333L69.6667 38.6667H75.1111L75.2222 38.7778ZM97.6667 39.6667C97.6667 42.1111 97 44.1111 95.6667 45.5555C95.1059 46.1724 94.4184 46.6606 93.6512 46.9866C92.8841 47.3127 92.0554 47.4688 91.2222 47.4444C89.3333 47.4444 87.8889 46.7778 87.1111 45.3333V53H83.7778V32.6667H86.5555L86.7778 34.8889C87.8889 33.2222 89.4444 32.3333 91.6667 32.3333C93.3333 32.3333 94.7778 33 95.8889 34.3333C97 35.6667 97.6667 37.4444 97.6667 39.6667ZM94.3333 39.7778C94.3333 38.4444 94.1111 37.2222 93.4444 36.3333C93.1351 35.8835 92.72 35.5165 92.2357 35.2647C91.7513 35.0128 91.2125 34.8838 90.6667 34.8889C89.856 34.8692 89.0659 35.1457 88.4444 35.6667C87.7778 36.2222 87.3333 36.8889 87.2222 37.7778L87 38.7778V41.1111C87 42.2222 87.3333 43.1111 88.1111 43.7778C88.6667 44.5556 89.5555 44.8889 90.5555 44.8889C91.6667 44.8889 92.7778 44.4444 93.3333 43.4444C94 42.5555 94.4444 41.3333 94.4444 39.7778H94.3333ZM114.333 39.6667C114.333 42.1111 113.667 44.1111 112.333 45.5555C111.773 46.1724 111.085 46.6606 110.318 46.9866C109.551 47.3127 108.722 47.4688 107.889 47.4444C106 47.4444 104.556 46.7778 103.778 45.3333V53H100.444V32.6667H103.222L103.444 34.8889C104.556 33.2222 106.111 32.3333 108.333 32.3333C110 32.3333 111.444 33 112.556 34.3333C113.667 35.6667 114.333 37.4444 114.333 39.6667ZM111 39.7778C111 38.4444 110.778 37.2222 110.111 36.3333C109.802 35.8835 109.387 35.5165 108.902 35.2647C108.418 35.0128 107.879 34.8838 107.333 34.8889C106.523 34.8692 105.733 35.1457 105.111 35.6667C104.444 36.2222 104 36.8889 103.889 37.7778L103.667 38.7778V41.1111C103.667 42.2222 104 43.1111 104.778 43.7778C105.333 44.5556 106.111 44.8889 107.222 44.8889C108.333 44.8889 109.444 44.4444 110 43.4444C110.667 42.5555 111.111 41.3333 111.111 39.7778H111ZM133 41.4444C133 43.2222 132.333 44.5555 131.111 45.6667C129.583 46.9204 127.64 47.5548 125.667 47.4444C123.444 47.4444 121.778 47 120.444 46.1111L121.222 43.4444C122.624 44.3132 124.24 44.7748 125.889 44.7778C127 44.7778 128.111 44.4444 128.667 43.8889C129.333 43.4444 129.778 42.6667 129.778 41.6667C129.778 40.8889 129.444 40.2222 128.889 39.6667C128.333 39.1111 127.444 38.5555 126.111 38.1111C122.556 36.7778 120.889 34.8889 120.889 32.3333C120.889 30.7778 121.444 29.3333 122.667 28.3333C123.889 27.2222 125.556 26.7778 127.556 26.7778C129.444 26.7778 130.889 27 132.111 27.6667L131.333 30.3333C130.222 29.6667 128.889 29.3333 127.556 29.3333C126.444 29.3333 125.444 29.6667 124.889 30.2222C124.333 30.6667 124 31.3333 124 32C124 32.8889 124.333 33.4444 125 34C125.556 34.4444 126.444 35 127.889 35.5555C129.667 36.2222 130.889 37.1111 131.667 38C132.556 38.8889 133 40.1111 133 41.4444ZM143.556 35H140V42.2222C140 44 140.667 44.8889 141.889 44.8889C142.444 44.8889 143 44.8889 143.333 44.6667V47.1111C142.778 47.4444 142 47.5555 140.889 47.5555C139.667 47.5555 138.667 47.1111 138 46.4444C137.222 45.5555 136.889 44.2222 136.889 42.4444V35.1111H134.667V32.7778H136.889V30L140 29V32.6667H143.556V35ZM159.556 39.7778C159.556 42 158.889 43.7778 157.667 45.2222C156.996 45.9627 156.171 46.5459 155.249 46.9301C154.327 47.3143 153.331 47.4899 152.333 47.4444C150.222 47.4444 148.556 46.7778 147.333 45.2222C146.073 43.7787 145.399 41.9156 145.444 40C145.325 37.9726 146.002 35.9786 147.333 34.4444C147.987 33.7126 148.793 33.134 149.696 32.7499C150.599 32.3657 151.575 32.1856 152.556 32.2222C154.778 32.2222 156.444 33 157.778 34.4444C159.034 35.9274 159.671 37.8375 159.556 39.7778ZM156.222 39.7778C156.224 38.6079 155.917 37.4583 155.333 36.4444C154.667 35.3333 153.778 34.6667 152.444 34.6667C151.848 34.6773 151.265 34.8479 150.757 35.1606C150.249 35.4733 149.834 35.9167 149.556 36.4444C148.953 37.4909 148.646 38.6814 148.667 39.8889C148.667 41.2222 149 42.3333 149.556 43.3333C149.834 43.8611 150.249 44.3045 150.757 44.6172C151.265 44.9299 151.848 45.1005 152.444 45.1111C153.667 45.1111 154.667 44.4444 155.333 43.3333C155.889 42.3333 156.222 41.1111 156.222 39.8889V39.7778ZM170 35.5555L169 35.3333C167.889 35.3333 167 35.7778 166.444 36.6667C165.889 37.4444 165.556 38.3333 165.556 39.5555V47.1111H162.333V32.6667H165.111V35.4444H165.333C165.667 34.4444 166.222 33.6667 166.889 33.1111C167.667 32.5555 168.444 32.3333 169.222 32.3333H170V35.5555ZM184.444 39.2222L184.333 40.6667H174.667C174.667 42.1111 175.111 43.1111 176.111 44C176.889 44.5555 177.889 44.8889 179.222 44.8889C180.667 44.8889 181.889 44.6667 183.111 44.2222L183.667 46.4444C182.222 47.1111 180.667 47.3333 178.778 47.3333C176.556 47.3333 174.778 46.6667 173.444 45.4444C172.792 44.7248 172.289 43.8828 171.965 42.9673C171.641 42.0517 171.501 41.0809 171.556 40.1111C171.556 37.8889 172.111 36.1111 173.333 34.5556C174.556 33.1111 176.333 32.3333 178.444 32.3333C180.444 32.3333 182.111 33.1111 183.111 34.5556C184.042 35.9291 184.509 37.5643 184.444 39.2222ZM181.333 38.3333C181.387 37.4821 181.194 36.6335 180.778 35.8889C180.506 35.4362 180.111 35.0703 179.638 34.8341C179.166 34.598 178.636 34.5014 178.111 34.5556C177.111 34.5556 176.222 35 175.556 35.8889C175.111 36.5555 174.778 37.3333 174.667 38.3333H181.333Z" fill="white"/>
</svg>
