<svg width="221" height="69" viewBox="0 0 221 69" fill="none" xmlns="http://www.w3.org/2000/svg">
<g filter="url(#filter0_d_618_1543)">
<rect width="213" height="61" rx="10" fill="#252525"/>
<path d="M76.419 21.6707V11.9857H79.591C80.5963 11.9857 81.4673 12.1894 82.204 12.5967C82.9493 12.9954 83.5256 13.5587 83.933 14.2867C84.3403 15.0147 84.544 15.8597 84.544 16.8217C84.544 17.7751 84.3403 18.6201 83.933 19.3567C83.5256 20.0847 82.9493 20.6524 82.204 21.0597C81.4673 21.4671 80.5963 21.6707 79.591 21.6707H76.419ZM77.953 20.3057H79.617C80.3016 20.3057 80.8953 20.1627 81.398 19.8767C81.9093 19.5907 82.3036 19.1877 82.581 18.6677C82.8583 18.1477 82.997 17.5324 82.997 16.8217C82.997 16.1111 82.854 15.5001 82.568 14.9887C82.2906 14.4687 81.9006 14.0657 81.398 13.7797C80.8953 13.4937 80.3016 13.3507 79.617 13.3507H77.953V20.3057ZM85.9117 21.6707V14.6377H87.3807V21.6707H85.9117ZM85.9117 13.6757V11.9857H87.3807V13.6757H85.9117ZM91.6982 21.8267C90.9789 21.8267 90.3462 21.6491 89.8002 21.2937C89.2629 20.9384 88.8859 20.4617 88.6692 19.8637L89.8002 19.3307C89.9909 19.7294 90.2509 20.0457 90.5802 20.2797C90.9182 20.5137 91.2909 20.6307 91.6982 20.6307C92.0449 20.6307 92.3266 20.5527 92.5432 20.3967C92.7599 20.2407 92.8682 20.0284 92.8682 19.7597C92.8682 19.5864 92.8206 19.4477 92.7252 19.3437C92.6299 19.2311 92.5086 19.1401 92.3612 19.0707C92.2226 19.0014 92.0796 18.9494 91.9322 18.9147L90.8272 18.6027C90.2206 18.4294 89.7656 18.1694 89.4622 17.8227C89.1676 17.4674 89.0202 17.0557 89.0202 16.5877C89.0202 16.1631 89.1286 15.7947 89.3452 15.4827C89.5619 15.1621 89.8609 14.9151 90.2422 14.7417C90.6236 14.5684 91.0526 14.4817 91.5292 14.4817C92.1706 14.4817 92.7426 14.6421 93.2452 14.9627C93.7479 15.2747 94.1032 15.7124 94.3112 16.2757L93.1802 16.8087C93.0416 16.4707 92.8206 16.2021 92.5172 16.0027C92.2226 15.8034 91.8889 15.7037 91.5162 15.7037C91.1956 15.7037 90.9399 15.7817 90.7492 15.9377C90.5586 16.0851 90.4632 16.2801 90.4632 16.5227C90.4632 16.6874 90.5066 16.8261 90.5932 16.9387C90.6799 17.0427 90.7926 17.1294 90.9312 17.1987C91.0699 17.2594 91.2129 17.3114 91.3602 17.3547L92.5042 17.6927C93.0849 17.8574 93.5312 18.1174 93.8432 18.4727C94.1552 18.8194 94.3112 19.2354 94.3112 19.7207C94.3112 20.1367 94.1986 20.5051 93.9732 20.8257C93.7566 21.1377 93.4532 21.3847 93.0632 21.5667C92.6732 21.7401 92.2182 21.8267 91.6982 21.8267ZM95.7506 24.2707V14.6377H97.1546V16.0937L96.9856 15.7557C97.2456 15.3571 97.5922 15.0451 98.0256 14.8197C98.4589 14.5944 98.9529 14.4817 99.5076 14.4817C100.175 14.4817 100.773 14.6421 101.302 14.9627C101.839 15.2834 102.259 15.7211 102.563 16.2757C102.875 16.8304 103.031 17.4544 103.031 18.1477C103.031 18.8411 102.875 19.4651 102.563 20.0197C102.259 20.5744 101.843 21.0164 101.315 21.3457C100.786 21.6664 100.184 21.8267 99.5076 21.8267C98.9616 21.8267 98.4632 21.7141 98.0126 21.4887C97.5706 21.2634 97.2282 20.9384 96.9856 20.5137L97.2196 20.2407V24.2707H95.7506ZM99.3646 20.4617C99.7806 20.4617 100.149 20.3621 100.47 20.1627C100.79 19.9634 101.042 19.6904 101.224 19.3437C101.414 18.9884 101.51 18.5897 101.51 18.1477C101.51 17.7057 101.414 17.3114 101.224 16.9647C101.042 16.6181 100.79 16.3451 100.47 16.1457C100.149 15.9464 99.7806 15.8467 99.3646 15.8467C98.9572 15.8467 98.5889 15.9464 98.2596 16.1457C97.9389 16.3451 97.6832 16.6181 97.4926 16.9647C97.3106 17.3114 97.2196 17.7057 97.2196 18.1477C97.2196 18.5897 97.3106 18.9884 97.4926 19.3437C97.6832 19.6904 97.9389 19.9634 98.2596 20.1627C98.5889 20.3621 98.9572 20.4617 99.3646 20.4617ZM107.853 21.8267C107.177 21.8267 106.557 21.6664 105.994 21.3457C105.439 21.0251 104.997 20.5874 104.668 20.0327C104.338 19.4781 104.174 18.8497 104.174 18.1477C104.174 17.4371 104.338 16.8087 104.668 16.2627C104.997 15.7081 105.439 15.2747 105.994 14.9627C106.548 14.6421 107.168 14.4817 107.853 14.4817C108.546 14.4817 109.166 14.6421 109.712 14.9627C110.266 15.2747 110.704 15.7081 111.025 16.2627C111.354 16.8087 111.519 17.4371 111.519 18.1477C111.519 18.8584 111.354 19.4911 111.025 20.0457C110.695 20.6004 110.253 21.0381 109.699 21.3587C109.144 21.6707 108.529 21.8267 107.853 21.8267ZM107.853 20.4617C108.269 20.4617 108.637 20.3621 108.958 20.1627C109.278 19.9634 109.53 19.6904 109.712 19.3437C109.902 18.9884 109.998 18.5897 109.998 18.1477C109.998 17.7057 109.902 17.3114 109.712 16.9647C109.53 16.6181 109.278 16.3451 108.958 16.1457C108.637 15.9464 108.269 15.8467 107.853 15.8467C107.445 15.8467 107.077 15.9464 106.748 16.1457C106.427 16.3451 106.171 16.6181 105.981 16.9647C105.799 17.3114 105.708 17.7057 105.708 18.1477C105.708 18.5897 105.799 18.9884 105.981 19.3437C106.171 19.6904 106.427 19.9634 106.748 20.1627C107.077 20.3621 107.445 20.4617 107.853 20.4617ZM112.953 21.6707V14.6377H114.357V16.0157L114.188 15.8337C114.361 15.3917 114.638 15.0581 115.02 14.8327C115.401 14.5987 115.843 14.4817 116.346 14.4817C116.866 14.4817 117.325 14.5944 117.724 14.8197C118.122 15.0451 118.434 15.3571 118.66 15.7557C118.885 16.1544 118.998 16.6137 118.998 17.1337V21.6707H117.542V17.5237C117.542 17.1684 117.477 16.8694 117.347 16.6267C117.217 16.3754 117.03 16.1847 116.788 16.0547C116.554 15.9161 116.285 15.8467 115.982 15.8467C115.678 15.8467 115.405 15.9161 115.163 16.0547C114.929 16.1847 114.747 16.3754 114.617 16.6267C114.487 16.8781 114.422 17.1771 114.422 17.5237V21.6707H112.953ZM120.57 21.6707V14.6377H122.039V21.6707H120.57ZM120.57 13.6757V11.9857H122.039V13.6757H120.57ZM127.513 21.8267C126.967 21.8267 126.469 21.7141 126.018 21.4887C125.576 21.2634 125.234 20.9384 124.991 20.5137L125.16 20.2407V21.6707H123.756V11.8297H125.225V16.0937L124.991 15.7557C125.251 15.3571 125.598 15.0451 126.031 14.8197C126.465 14.5944 126.959 14.4817 127.513 14.4817C128.181 14.4817 128.779 14.6421 129.307 14.9627C129.845 15.2834 130.265 15.7211 130.568 16.2757C130.88 16.8304 131.036 17.4544 131.036 18.1477C131.036 18.8411 130.88 19.4651 130.568 20.0197C130.265 20.5744 129.849 21.0164 129.32 21.3457C128.792 21.6664 128.189 21.8267 127.513 21.8267ZM127.37 20.4617C127.786 20.4617 128.155 20.3621 128.475 20.1627C128.796 19.9634 129.047 19.6904 129.229 19.3437C129.42 18.9884 129.515 18.5897 129.515 18.1477C129.515 17.7057 129.42 17.3114 129.229 16.9647C129.047 16.6181 128.796 16.3451 128.475 16.1457C128.155 15.9464 127.786 15.8467 127.37 15.8467C126.963 15.8467 126.595 15.9464 126.265 16.1457C125.945 16.3451 125.689 16.6181 125.498 16.9647C125.316 17.3114 125.225 17.7057 125.225 18.1477C125.225 18.5897 125.316 18.9884 125.498 19.3437C125.689 19.6904 125.945 19.9634 126.265 20.1627C126.595 20.3621 126.963 20.4617 127.37 20.4617ZM132.465 21.6707V11.8297H133.934V21.6707H132.465ZM138.954 21.8267C138.252 21.8267 137.628 21.6664 137.082 21.3457C136.545 21.0164 136.124 20.5744 135.821 20.0197C135.518 19.4564 135.366 18.8281 135.366 18.1347C135.366 17.4241 135.518 16.7957 135.821 16.2497C136.133 15.7037 136.549 15.2747 137.069 14.9627C137.589 14.6421 138.178 14.4817 138.837 14.4817C139.366 14.4817 139.838 14.5727 140.254 14.7547C140.67 14.9367 141.021 15.1881 141.307 15.5087C141.593 15.8207 141.81 16.1804 141.957 16.5877C142.113 16.9951 142.191 17.4284 142.191 17.8877C142.191 18.0004 142.187 18.1174 142.178 18.2387C142.169 18.3601 142.152 18.4727 142.126 18.5767H136.523V17.4067H141.294L140.592 17.9397C140.679 17.5151 140.648 17.1381 140.501 16.8087C140.362 16.4707 140.146 16.2064 139.851 16.0157C139.565 15.8164 139.227 15.7167 138.837 15.7167C138.447 15.7167 138.1 15.8164 137.797 16.0157C137.494 16.2064 137.26 16.4837 137.095 16.8477C136.93 17.2031 136.865 17.6364 136.9 18.1477C136.857 18.6244 136.922 19.0404 137.095 19.3957C137.277 19.7511 137.528 20.0284 137.849 20.2277C138.178 20.4271 138.551 20.5267 138.967 20.5267C139.392 20.5267 139.751 20.4314 140.046 20.2407C140.349 20.0501 140.588 19.8031 140.761 19.4997L141.957 20.0847C141.818 20.4141 141.602 20.7131 141.307 20.9817C141.021 21.2417 140.674 21.4497 140.267 21.6057C139.868 21.7531 139.431 21.8267 138.954 21.8267ZM149.199 21.8267C148.497 21.8267 147.873 21.6664 147.327 21.3457C146.79 21.0164 146.369 20.5744 146.066 20.0197C145.763 19.4564 145.611 18.8281 145.611 18.1347C145.611 17.4241 145.763 16.7957 146.066 16.2497C146.378 15.7037 146.794 15.2747 147.314 14.9627C147.834 14.6421 148.423 14.4817 149.082 14.4817C149.611 14.4817 150.083 14.5727 150.499 14.7547C150.915 14.9367 151.266 15.1881 151.552 15.5087C151.838 15.8207 152.055 16.1804 152.202 16.5877C152.358 16.9951 152.436 17.4284 152.436 17.8877C152.436 18.0004 152.432 18.1174 152.423 18.2387C152.414 18.3601 152.397 18.4727 152.371 18.5767H146.768V17.4067H151.539L150.837 17.9397C150.924 17.5151 150.893 17.1381 150.746 16.8087C150.607 16.4707 150.391 16.2064 150.096 16.0157C149.81 15.8164 149.472 15.7167 149.082 15.7167C148.692 15.7167 148.345 15.8164 148.042 16.0157C147.739 16.2064 147.505 16.4837 147.34 16.8477C147.175 17.2031 147.11 17.6364 147.145 18.1477C147.102 18.6244 147.167 19.0404 147.34 19.3957C147.522 19.7511 147.773 20.0284 148.094 20.2277C148.423 20.4271 148.796 20.5267 149.212 20.5267C149.637 20.5267 149.996 20.4314 150.291 20.2407C150.594 20.0501 150.833 19.8031 151.006 19.4997L152.202 20.0847C152.063 20.4141 151.847 20.7131 151.552 20.9817C151.266 21.2417 150.919 21.4497 150.512 21.6057C150.113 21.7531 149.676 21.8267 149.199 21.8267ZM153.87 21.6707V14.6377H155.274V16.0157L155.105 15.8337C155.278 15.3917 155.555 15.0581 155.937 14.8327C156.318 14.5987 156.76 14.4817 157.263 14.4817C157.783 14.4817 158.242 14.5944 158.641 14.8197C159.039 15.0451 159.351 15.3571 159.577 15.7557C159.802 16.1544 159.915 16.6137 159.915 17.1337V21.6707H158.459V17.5237C158.459 17.1684 158.394 16.8694 158.264 16.6267C158.134 16.3754 157.947 16.1847 157.705 16.0547C157.471 15.9161 157.202 15.8467 156.899 15.8467C156.595 15.8467 156.322 15.9161 156.08 16.0547C155.846 16.1847 155.664 16.3754 155.534 16.6267C155.404 16.8781 155.339 17.1771 155.339 17.5237V21.6707H153.87Z" fill="#F0F0F0"/>
<path d="M56.0588 29.8721C56.01 25.6136 59.5363 23.5053 59.7318 23.4075C57.7243 20.4684 54.6378 20.0775 53.5625 20.0775C50.9683 19.7843 48.4196 21.6448 47.0963 21.6448C45.7731 21.6448 43.7166 20.1264 41.5135 20.1752C38.6715 20.2241 36.0284 21.8402 34.5585 24.3849C31.5699 29.5754 33.7765 37.2129 36.6639 41.426C38.0849 43.482 39.7992 45.7823 42.0023 45.6846C44.1565 45.5869 44.9421 44.3128 47.5362 44.3128C50.1304 44.3128 50.8671 45.6846 53.119 45.6357C55.4199 45.5869 56.8898 43.5798 58.2619 41.4749C59.9274 39.1257 60.6117 36.7731 60.6117 36.6753C60.5139 36.6753 56.0553 35.0103 56.0553 29.8686L56.0588 29.8721Z" fill="#F0F0F0"/>
<path d="M51.7999 17.3373C52.9765 15.8678 53.7586 13.9095 53.5142 11.9024C51.8488 12.0002 49.7434 13.0788 48.5179 14.496C47.4391 15.7212 46.5104 17.7771 46.7548 19.6865C48.6646 19.8331 50.5744 18.7545 51.7999 17.3373Z" fill="#F0F0F0"/>
<path d="M87.1571 45.3948H84.1684L82.503 40.2043H76.7736L75.2059 45.3948H72.2661L77.9467 27.7672H81.473L87.1536 45.3948H87.1571ZM82.0142 38.0505L80.5443 33.4464C80.3977 32.9577 80.1044 31.8791 79.6645 30.1164H79.6156C79.4201 30.8494 79.1757 31.9769 78.7846 33.4464L77.3147 38.0505H82.0177H82.0142Z" fill="#F0F0F0"/>
<path d="M101.751 38.8813C101.751 41.035 101.165 42.7489 99.9882 44.023C98.9582 45.1505 97.6385 45.688 96.0708 45.688C94.4054 45.688 93.1799 45.1016 92.4467 43.8764H92.3978V50.5853H89.5558V36.8742C89.5558 35.5024 89.5069 34.1306 89.458 32.7134H91.9544L92.101 34.7205H92.1499C93.0821 33.2021 94.4996 32.4691 96.4583 32.4691C97.9771 32.4691 99.2026 33.0555 100.229 34.2318C101.259 35.4082 101.748 36.9755 101.748 38.8848L101.751 38.8813ZM98.9093 38.9791C98.9093 37.7539 98.6161 36.7276 98.0784 35.9422C97.4918 35.1115 96.6574 34.6682 95.6309 34.6682C94.9466 34.6682 94.3076 34.9125 93.7211 35.3523C93.1345 35.7921 92.7888 36.4309 92.5933 37.164C92.4956 37.506 92.4467 37.7992 92.4467 38.0436V40.1484C92.4467 41.0804 92.74 41.8623 93.2776 42.4976C93.8642 43.1329 94.6009 43.4296 95.4807 43.4296C96.5596 43.4296 97.3906 43.0386 97.9771 42.2044C98.5637 41.4225 98.9093 40.3439 98.9093 38.9721V38.9791Z" fill="#F0F0F0"/>
<path d="M116.398 38.8813C116.398 41.035 115.811 42.7489 114.635 44.023C113.605 45.1505 112.285 45.688 110.717 45.688C109.052 45.688 107.826 45.1016 107.093 43.8764H107.044V50.5853H104.202V36.8742C104.202 35.5024 104.153 34.1306 104.104 32.7134H106.601L106.748 34.7205H106.796C107.729 33.2021 109.146 32.4691 111.105 32.4691C112.624 32.4691 113.849 33.0555 114.876 34.2318C115.857 35.4082 116.394 36.9755 116.394 38.8848L116.398 38.8813ZM113.507 38.9791C113.507 37.7539 113.214 36.7276 112.676 35.9422C112.089 35.1115 111.255 34.6682 110.228 34.6682C109.544 34.6682 108.905 34.9125 108.319 35.3523C107.732 35.7921 107.386 36.4309 107.191 37.164C107.093 37.506 107.044 37.7992 107.044 38.0436V40.1484C107.044 41.0804 107.338 41.8623 107.875 42.4976C108.462 43.1329 109.199 43.4296 110.078 43.4296C111.157 43.4296 111.988 43.0386 112.575 42.2044C113.21 41.4225 113.507 40.3439 113.507 38.9721V38.9791Z" fill="#F0F0F0"/>
<path d="M132.707 40.4487C132.707 41.9671 132.169 43.1923 131.139 44.1208C130.012 45.1505 128.395 45.6392 126.339 45.6392C124.429 45.6392 122.91 45.2971 121.782 44.5606L122.418 42.2114C123.643 42.9444 125.012 43.3389 126.482 43.3389C127.561 43.3389 128.392 43.0945 128.978 42.6059C129.565 42.1172 129.858 41.4784 129.858 40.6965C129.858 39.9635 129.614 39.3736 129.125 38.8849C128.636 38.3962 127.85 37.9529 126.677 37.5131C123.591 36.3856 122.072 34.6717 122.072 32.4691C122.072 30.9996 122.61 29.8267 123.689 28.8947C124.767 27.9628 126.185 27.5229 127.997 27.5229C129.614 27.5229 130.937 27.8161 132.012 28.3537L131.328 30.654C130.347 30.1165 129.222 29.8232 127.948 29.8232C126.967 29.8232 126.185 30.0676 125.647 30.5563C125.158 30.9961 124.963 31.5371 124.963 32.1724C124.963 32.8566 125.207 33.4465 125.794 33.8863C126.283 34.3261 127.117 34.7659 128.339 35.2581C129.858 35.8445 130.982 36.5811 131.67 37.4118C132.354 38.1937 132.7 39.2235 132.7 40.4487H132.707Z" fill="#F0F0F0"/>
<path d="M142.061 34.8183H138.925V40.9862C138.925 42.5535 139.463 43.3354 140.591 43.3354C141.08 43.3354 141.523 43.2865 141.865 43.1888L141.963 45.3425C141.425 45.538 140.689 45.6357 139.76 45.6357C138.632 45.6357 137.752 45.2936 137.166 44.606C136.53 43.9218 136.234 42.7944 136.234 41.1782V34.7625H134.373V32.6576H136.234V30.3085L139.027 29.4777V32.6611H142.162V34.8148H142.064L142.061 34.8183Z" fill="#F0F0F0"/>
<path d="M156.117 38.9303C156.117 40.8885 155.579 42.5047 154.451 43.7299C153.275 45.0039 151.707 45.6881 149.797 45.6881C147.887 45.6881 146.466 45.0528 145.342 43.8276C144.214 42.6024 143.677 41.0351 143.677 39.1257C143.677 37.2164 144.263 35.5514 145.391 34.2773C146.519 33.0032 148.086 32.4168 149.996 32.4168C151.906 32.4168 153.376 33.0521 154.504 34.2773C155.583 35.5025 156.12 37.0209 156.12 38.9303H156.117ZM153.177 39.028C153.177 37.8517 152.933 36.8743 152.444 35.9912C151.857 34.9614 151.023 34.4728 149.899 34.4728C148.774 34.4728 147.891 34.9614 147.304 35.9912C146.816 36.8219 146.571 37.8517 146.571 39.0769C146.571 40.3021 146.816 41.2306 147.304 42.1137C147.891 43.1434 148.774 43.6321 149.85 43.6321C150.925 43.6321 151.759 43.0946 152.395 42.0648C152.884 41.2341 153.177 40.2043 153.177 39.028Z" fill="#F0F0F0"/>
<path d="M165.275 35.1604C164.982 35.1115 164.688 35.0626 164.395 35.0626C163.414 35.0626 162.632 35.4536 162.094 36.1901C161.605 36.8743 161.41 37.7085 161.41 38.6859V45.346H158.568L158.617 36.6299C158.617 35.1604 158.568 33.8374 158.519 32.6157H160.967L161.064 35.0626H161.162C161.455 34.2319 161.944 33.5442 162.583 33.0555C163.219 32.6157 163.906 32.3714 164.64 32.3714C164.884 32.3714 165.128 32.3714 165.324 32.4203V35.1639H165.275V35.1604Z" fill="#F0F0F0"/>
<path d="M177.911 38.4416C177.911 38.9303 177.862 39.3736 177.813 39.7157H169.339C169.388 40.9897 169.779 41.9182 170.565 42.6059C171.298 43.1923 172.181 43.4855 173.358 43.4855C174.632 43.4855 175.757 43.29 176.787 42.8991L177.227 44.8573C176.001 45.3949 174.584 45.6392 172.967 45.6392C171.008 45.6392 169.441 45.0528 168.313 43.9253C167.185 42.749 166.647 41.2341 166.647 39.2724C166.647 37.3106 167.185 35.7468 168.215 34.4728C169.294 33.101 170.809 32.4168 172.67 32.4168C174.531 32.4168 175.903 33.101 176.832 34.4728C177.516 35.5025 177.911 36.8708 177.911 38.4381V38.4416ZM175.215 37.7086C175.215 36.8778 175.069 36.1413 174.678 35.5549C174.189 34.773 173.452 34.3785 172.426 34.3785C171.494 34.3785 170.76 34.7695 170.174 35.506C169.685 36.0924 169.441 36.8289 169.343 37.7086H175.219H175.215Z" fill="#F0F0F0"/>
</g>
<defs>
<filter id="filter0_d_618_1543" x="0" y="0" width="221" height="69" filterUnits="userSpaceOnUse" color-interpolation-filters="sRGB">
<feFlood flood-opacity="0" result="BackgroundImageFix"/>
<feColorMatrix in="SourceAlpha" type="matrix" values="0 0 0 0 0 0 0 0 0 0 0 0 0 0 0 0 0 0 127 0" result="hardAlpha"/>
<feOffset dx="4" dy="4"/>
<feGaussianBlur stdDeviation="2"/>
<feComposite in2="hardAlpha" operator="out"/>
<feColorMatrix type="matrix" values="0 0 0 0 0 0 0 0 0 0 0 0 0 0 0 0 0 0 0.15 0"/>
<feBlend mode="normal" in2="BackgroundImageFix" result="effect1_dropShadow_618_1543"/>
<feBlend mode="normal" in="SourceGraphic" in2="effect1_dropShadow_618_1543" result="shape"/>
</filter>
</defs>
</svg>
