<svg width="221" height="69" viewBox="0 0 221 69" fill="none" xmlns="http://www.w3.org/2000/svg">
<g filter="url(#filter0_d_618_1558)">
<rect x="1" y="1" width="211" height="59" rx="9" fill="white" stroke="#252525" stroke-width="2"/>
<path d="M78.1455 23.5V13.815H81.3175C82.3229 13.815 83.1939 14.0187 83.9305 14.426C84.6759 14.8247 85.2522 15.388 85.6595 16.116C86.0669 16.844 86.2705 17.689 86.2705 18.651C86.2705 19.6043 86.0669 20.4493 85.6595 21.186C85.2522 21.914 84.6759 22.4817 83.9305 22.889C83.1939 23.2963 82.3229 23.5 81.3175 23.5H78.1455ZM79.6795 22.135H81.3435C82.0282 22.135 82.6219 21.992 83.1245 21.706C83.6359 21.42 84.0302 21.017 84.3075 20.497C84.5849 19.977 84.7235 19.3617 84.7235 18.651C84.7235 17.9403 84.5805 17.3293 84.2945 16.818C84.0172 16.298 83.6272 15.895 83.1245 15.609C82.6219 15.323 82.0282 15.18 81.3435 15.18H79.6795V22.135ZM87.6383 23.5V16.467H89.1073V23.5H87.6383ZM87.6383 15.505V13.815H89.1073V15.505H87.6383ZM93.4248 23.656C92.7055 23.656 92.0728 23.4783 91.5268 23.123C90.9895 22.7677 90.6125 22.291 90.3958 21.693L91.5268 21.16C91.7175 21.5587 91.9775 21.875 92.3068 22.109C92.6448 22.343 93.0175 22.46 93.4248 22.46C93.7715 22.46 94.0531 22.382 94.2698 22.226C94.4865 22.07 94.5948 21.8577 94.5948 21.589C94.5948 21.4157 94.5471 21.277 94.4518 21.173C94.3565 21.0603 94.2351 20.9693 94.0878 20.9C93.9491 20.8307 93.8061 20.7787 93.6588 20.744L92.5538 20.432C91.9471 20.2587 91.4921 19.9987 91.1888 19.652C90.8941 19.2967 90.7468 18.885 90.7468 18.417C90.7468 17.9923 90.8551 17.624 91.0718 17.312C91.2885 16.9913 91.5875 16.7443 91.9688 16.571C92.3501 16.3977 92.7791 16.311 93.2558 16.311C93.8971 16.311 94.4691 16.4713 94.9718 16.792C95.4745 17.104 95.8298 17.5417 96.0378 18.105L94.9068 18.638C94.7681 18.3 94.5471 18.0313 94.2438 17.832C93.9491 17.6327 93.6155 17.533 93.2428 17.533C92.9221 17.533 92.6665 17.611 92.4758 17.767C92.2851 17.9143 92.1898 18.1093 92.1898 18.352C92.1898 18.5167 92.2331 18.6553 92.3198 18.768C92.4065 18.872 92.5191 18.9587 92.6578 19.028C92.7965 19.0887 92.9395 19.1407 93.0868 19.184L94.2308 19.522C94.8115 19.6867 95.2578 19.9467 95.5698 20.302C95.8818 20.6487 96.0378 21.0647 96.0378 21.55C96.0378 21.966 95.9251 22.3343 95.6998 22.655C95.4831 22.967 95.1798 23.214 94.7898 23.396C94.3998 23.5693 93.9448 23.656 93.4248 23.656ZM97.4771 26.1V16.467H98.8811V17.923L98.7121 17.585C98.9721 17.1863 99.3188 16.8743 99.7521 16.649C100.185 16.4237 100.679 16.311 101.234 16.311C101.901 16.311 102.499 16.4713 103.028 16.792C103.565 17.1127 103.986 17.5503 104.289 18.105C104.601 18.6597 104.757 19.2837 104.757 19.977C104.757 20.6703 104.601 21.2943 104.289 21.849C103.986 22.4037 103.57 22.8457 103.041 23.175C102.512 23.4957 101.91 23.656 101.234 23.656C100.688 23.656 100.19 23.5433 99.7391 23.318C99.2971 23.0927 98.9548 22.7677 98.7121 22.343L98.9461 22.07V26.1H97.4771ZM101.091 22.291C101.507 22.291 101.875 22.1913 102.196 21.992C102.517 21.7927 102.768 21.5197 102.95 21.173C103.141 20.8177 103.236 20.419 103.236 19.977C103.236 19.535 103.141 19.1407 102.95 18.794C102.768 18.4473 102.517 18.1743 102.196 17.975C101.875 17.7757 101.507 17.676 101.091 17.676C100.684 17.676 100.315 17.7757 99.9861 17.975C99.6655 18.1743 99.4098 18.4473 99.2191 18.794C99.0371 19.1407 98.9461 19.535 98.9461 19.977C98.9461 20.419 99.0371 20.8177 99.2191 21.173C99.4098 21.5197 99.6655 21.7927 99.9861 21.992C100.315 22.1913 100.684 22.291 101.091 22.291ZM109.579 23.656C108.903 23.656 108.283 23.4957 107.72 23.175C107.165 22.8543 106.723 22.4167 106.394 21.862C106.065 21.3073 105.9 20.679 105.9 19.977C105.9 19.2663 106.065 18.638 106.394 18.092C106.723 17.5373 107.165 17.104 107.72 16.792C108.275 16.4713 108.894 16.311 109.579 16.311C110.272 16.311 110.892 16.4713 111.438 16.792C111.993 17.104 112.43 17.5373 112.751 18.092C113.08 18.638 113.245 19.2663 113.245 19.977C113.245 20.6877 113.08 21.3203 112.751 21.875C112.422 22.4297 111.98 22.8673 111.425 23.188C110.87 23.5 110.255 23.656 109.579 23.656ZM109.579 22.291C109.995 22.291 110.363 22.1913 110.684 21.992C111.005 21.7927 111.256 21.5197 111.438 21.173C111.629 20.8177 111.724 20.419 111.724 19.977C111.724 19.535 111.629 19.1407 111.438 18.794C111.256 18.4473 111.005 18.1743 110.684 17.975C110.363 17.7757 109.995 17.676 109.579 17.676C109.172 17.676 108.803 17.7757 108.474 17.975C108.153 18.1743 107.898 18.4473 107.707 18.794C107.525 19.1407 107.434 19.535 107.434 19.977C107.434 20.419 107.525 20.8177 107.707 21.173C107.898 21.5197 108.153 21.7927 108.474 21.992C108.803 22.1913 109.172 22.291 109.579 22.291ZM114.679 23.5V16.467H116.083V17.845L115.914 17.663C116.088 17.221 116.365 16.8873 116.746 16.662C117.128 16.428 117.57 16.311 118.072 16.311C118.592 16.311 119.052 16.4237 119.45 16.649C119.849 16.8743 120.161 17.1863 120.386 17.585C120.612 17.9837 120.724 18.443 120.724 18.963V23.5H119.268V19.353C119.268 18.9977 119.203 18.6987 119.073 18.456C118.943 18.2047 118.757 18.014 118.514 17.884C118.28 17.7453 118.012 17.676 117.708 17.676C117.405 17.676 117.132 17.7453 116.889 17.884C116.655 18.014 116.473 18.2047 116.343 18.456C116.213 18.7073 116.148 19.0063 116.148 19.353V23.5H114.679ZM122.296 23.5V16.467H123.765V23.5H122.296ZM122.296 15.505V13.815H123.765V15.505H122.296ZM129.24 23.656C128.694 23.656 128.196 23.5433 127.745 23.318C127.303 23.0927 126.961 22.7677 126.718 22.343L126.887 22.07V23.5H125.483V13.659H126.952V17.923L126.718 17.585C126.978 17.1863 127.325 16.8743 127.758 16.649C128.191 16.4237 128.685 16.311 129.24 16.311C129.907 16.311 130.505 16.4713 131.034 16.792C131.571 17.1127 131.992 17.5503 132.295 18.105C132.607 18.6597 132.763 19.2837 132.763 19.977C132.763 20.6703 132.607 21.2943 132.295 21.849C131.992 22.4037 131.576 22.8457 131.047 23.175C130.518 23.4957 129.916 23.656 129.24 23.656ZM129.097 22.291C129.513 22.291 129.881 22.1913 130.202 21.992C130.523 21.7927 130.774 21.5197 130.956 21.173C131.147 20.8177 131.242 20.419 131.242 19.977C131.242 19.535 131.147 19.1407 130.956 18.794C130.774 18.4473 130.523 18.1743 130.202 17.975C129.881 17.7757 129.513 17.676 129.097 17.676C128.69 17.676 128.321 17.7757 127.992 17.975C127.671 18.1743 127.416 18.4473 127.225 18.794C127.043 19.1407 126.952 19.535 126.952 19.977C126.952 20.419 127.043 20.8177 127.225 21.173C127.416 21.5197 127.671 21.7927 127.992 21.992C128.321 22.1913 128.69 22.291 129.097 22.291ZM134.192 23.5V13.659H135.661V23.5H134.192ZM140.681 23.656C139.979 23.656 139.355 23.4957 138.809 23.175C138.271 22.8457 137.851 22.4037 137.548 21.849C137.244 21.2857 137.093 20.6573 137.093 19.964C137.093 19.2533 137.244 18.625 137.548 18.079C137.86 17.533 138.276 17.104 138.796 16.792C139.316 16.4713 139.905 16.311 140.564 16.311C141.092 16.311 141.565 16.402 141.981 16.584C142.397 16.766 142.748 17.0173 143.034 17.338C143.32 17.65 143.536 18.0097 143.684 18.417C143.84 18.8243 143.918 19.2577 143.918 19.717C143.918 19.8297 143.913 19.9467 143.905 20.068C143.896 20.1893 143.879 20.302 143.853 20.406H138.25V19.236H143.021L142.319 19.769C142.405 19.3443 142.375 18.9673 142.228 18.638C142.089 18.3 141.872 18.0357 141.578 17.845C141.292 17.6457 140.954 17.546 140.564 17.546C140.174 17.546 139.827 17.6457 139.524 17.845C139.22 18.0357 138.986 18.313 138.822 18.677C138.657 19.0323 138.592 19.4657 138.627 19.977C138.583 20.4537 138.648 20.8697 138.822 21.225C139.004 21.5803 139.255 21.8577 139.576 22.057C139.905 22.2563 140.278 22.356 140.694 22.356C141.118 22.356 141.478 22.2607 141.773 22.07C142.076 21.8793 142.314 21.6323 142.488 21.329L143.684 21.914C143.545 22.2433 143.328 22.5423 143.034 22.811C142.748 23.071 142.401 23.279 141.994 23.435C141.595 23.5823 141.157 23.656 140.681 23.656ZM150.926 23.656C150.224 23.656 149.6 23.4957 149.054 23.175C148.516 22.8457 148.096 22.4037 147.793 21.849C147.489 21.2857 147.338 20.6573 147.338 19.964C147.338 19.2533 147.489 18.625 147.793 18.079C148.105 17.533 148.521 17.104 149.041 16.792C149.561 16.4713 150.15 16.311 150.809 16.311C151.337 16.311 151.81 16.402 152.226 16.584C152.642 16.766 152.993 17.0173 153.279 17.338C153.565 17.65 153.781 18.0097 153.929 18.417C154.085 18.8243 154.163 19.2577 154.163 19.717C154.163 19.8297 154.158 19.9467 154.15 20.068C154.141 20.1893 154.124 20.302 154.098 20.406H148.495V19.236H153.266L152.564 19.769C152.65 19.3443 152.62 18.9673 152.473 18.638C152.334 18.3 152.117 18.0357 151.823 17.845C151.537 17.6457 151.199 17.546 150.809 17.546C150.419 17.546 150.072 17.6457 149.769 17.845C149.465 18.0357 149.231 18.313 149.067 18.677C148.902 19.0323 148.837 19.4657 148.872 19.977C148.828 20.4537 148.893 20.8697 149.067 21.225C149.249 21.5803 149.5 21.8577 149.821 22.057C150.15 22.2563 150.523 22.356 150.939 22.356C151.363 22.356 151.723 22.2607 152.018 22.07C152.321 21.8793 152.559 21.6323 152.733 21.329L153.929 21.914C153.79 22.2433 153.573 22.5423 153.279 22.811C152.993 23.071 152.646 23.279 152.239 23.435C151.84 23.5823 151.402 23.656 150.926 23.656ZM155.596 23.5V16.467H157V17.845L156.831 17.663C157.005 17.221 157.282 16.8873 157.663 16.662C158.045 16.428 158.487 16.311 158.989 16.311C159.509 16.311 159.969 16.4237 160.367 16.649C160.766 16.8743 161.078 17.1863 161.303 17.585C161.529 17.9837 161.641 18.443 161.641 18.963V23.5H160.185V19.353C160.185 18.9977 160.12 18.6987 159.99 18.456C159.86 18.2047 159.674 18.014 159.431 17.884C159.197 17.7453 158.929 17.676 158.625 17.676C158.322 17.676 158.049 17.7453 157.806 17.884C157.572 18.014 157.39 18.2047 157.26 18.456C157.13 18.7073 157.065 19.0063 157.065 19.353V23.5H155.596Z" fill="#252525"/>
<path d="M56.7648 29.9475L40.5951 46.0894C40.4306 45.7895 40.3228 45.3777 40.3228 44.8502V15.0644C40.3228 14.5295 40.4337 14.1134 40.6021 13.8125L56.7648 29.9475Z" fill="#252525" stroke="white"/>
<path d="M69.3336 28.4334L69.3351 28.4343C70.1905 28.9146 70.4998 29.4795 70.4998 29.9399C70.4998 30.4015 70.1892 30.9716 69.3326 31.4617C69.3323 31.4619 69.332 31.4621 69.3317 31.4622L62.9201 35.0924L57.7846 29.9476L62.9321 24.809L69.3336 28.4334Z" fill="#252525" stroke="white"/>
<path d="M43.0068 46.3839L43.0068 46.3839L43.0009 46.3874C42.2613 46.8202 41.6543 46.853 41.2248 46.6763L57.2746 30.654L62.1553 35.5263L43.0068 46.3839Z" fill="#252525" stroke="white"/>
<path d="M43.0083 13.5314C43.0087 13.5317 43.0092 13.532 43.0097 13.5322L62.1553 24.3883L57.2746 29.2605L41.2262 13.2397C41.6494 13.0704 42.2493 13.108 43.0083 13.5314Z" fill="#252525" stroke="white"/>
<path d="M107.974 34.2548C105.284 34.2548 103.097 36.2587 103.097 39.0247C103.097 41.7766 105.284 43.7946 107.974 43.7946C110.663 43.7946 112.85 41.7766 112.85 39.0247C112.85 36.2728 110.663 34.2548 107.974 34.2548ZM107.974 41.9177C106.506 41.9177 105.226 40.7182 105.226 39.0247C105.226 37.303 106.492 36.1317 107.974 36.1317C109.455 36.1317 110.721 37.303 110.721 39.0247C110.706 40.7182 109.441 41.9177 107.974 41.9177ZM121.034 35.3273H120.962C120.487 34.7628 119.567 34.2548 118.402 34.2548C115.971 34.2548 113.741 36.3575 113.741 39.0388C113.741 41.706 115.971 43.7946 118.402 43.7946C119.567 43.7946 120.487 43.2866 120.962 42.708H121.034V43.3995C121.034 45.2199 120.042 46.1937 118.445 46.1937C117.136 46.1937 116.331 45.2764 116 44.5002L114.144 45.2623C114.676 46.5324 116.1 48.0847 118.459 48.0847C120.962 48.0847 123.077 46.6453 123.077 43.1172V34.5512H121.048L121.034 35.3273ZM118.589 41.9177C117.122 41.9177 115.885 40.704 115.885 39.0388C115.885 37.3595 117.122 36.1317 118.589 36.1317C120.042 36.1317 121.178 37.3595 121.178 39.0388C121.178 40.7182 120.042 41.9177 118.589 41.9177ZM97.3295 34.2548C94.6397 34.2548 92.4534 36.2587 92.4534 39.0247C92.4534 41.7766 94.6397 43.7946 97.3295 43.7946C100.019 43.7946 102.206 41.7766 102.206 39.0247C102.206 36.2728 100.019 34.2548 97.3295 34.2548ZM97.3295 41.9177C95.8623 41.9177 94.5822 40.7182 94.5822 39.0247C94.5822 37.303 95.8479 36.1317 97.3295 36.1317C98.7966 36.1317 100.077 37.303 100.077 39.0247C100.062 40.7182 98.7966 41.9177 97.3295 41.9177ZM84.6573 35.7084V37.7264H89.591C89.4471 38.8695 89.0588 39.7021 88.469 40.2807C87.7498 40.9863 86.6279 41.7625 84.6573 41.7625C81.6223 41.7625 79.249 39.3634 79.249 36.3857C79.249 33.4081 81.6223 31.009 84.6573 31.009C86.2971 31.009 87.4909 31.6441 88.3827 32.4485L89.8355 31.0231C88.5985 29.8659 86.9587 28.9769 84.6573 28.9769C80.5004 28.9769 76.9907 32.3073 76.9907 36.3857C76.9907 40.4641 80.486 43.7946 84.6573 43.7946C86.9012 43.7946 88.5985 43.0749 89.9218 41.7201C91.2883 40.3795 91.7054 38.5026 91.7054 36.9926C91.7054 36.5269 91.6622 36.0894 91.5903 35.7225L84.6573 35.7084ZM136.439 37.303C136.036 36.2305 134.799 34.2689 132.282 34.2689C129.779 34.2689 127.694 36.2023 127.694 39.0388C127.694 41.706 129.751 43.8087 132.512 43.8087C134.742 43.8087 136.036 42.4681 136.569 41.6919L134.914 40.6053C134.368 41.3955 133.606 41.9177 132.527 41.9177C131.448 41.9177 130.671 41.4238 130.168 40.4782L136.669 37.8393L136.439 37.303ZM129.823 38.8836C129.765 37.0349 131.275 36.1035 132.369 36.1035C133.217 36.1035 133.936 36.5127 134.167 37.1196L129.823 38.8836ZM124.529 43.5124H126.658V29.499H124.529V43.5124ZM146.45 29.499H141.344V43.5124H143.473V38.2062H146.45C148.809 38.2062 151.139 36.5269 151.139 33.8456C151.139 31.1784 148.809 29.499 146.45 29.499ZM146.508 36.2305H143.473V31.4324H146.508C148.104 31.4324 149.011 32.7307 149.011 33.8314C149.011 34.9322 148.104 36.2305 146.508 36.2305ZM152.319 43.5124H154.448V29.499H152.319V43.5124ZM159.683 34.2266C158.144 34.2266 156.533 34.8899 155.872 36.3716L157.77 37.1478C158.173 36.3716 158.921 36.1176 159.712 36.1176C160.82 36.1176 161.942 36.7668 161.956 37.924V38.0651C161.568 37.8534 160.748 37.5288 159.727 37.5288C157.684 37.5288 155.613 38.6296 155.613 40.6899C155.613 42.5668 157.281 43.7664 159.166 43.7664C160.604 43.7664 161.395 43.1313 161.884 42.3975H161.956V43.4841H164.013V38.1074C164.027 35.6237 162.129 34.2266 159.683 34.2266ZM159.425 41.9177C158.72 41.9177 157.756 41.579 157.756 40.7323C157.756 39.6456 158.964 39.2364 160.014 39.2364C160.949 39.2364 161.395 39.434 161.956 39.7021C161.798 41.0004 160.662 41.9177 159.425 41.9177ZM171.521 34.537L169.076 40.6194H169.004L166.473 34.537H164.171L167.969 43.0325L165.797 47.7742H168.026L173.895 34.5512H171.521V34.537Z" fill="#252525"/>
</g>
<defs>
<filter id="filter0_d_618_1558" x="0" y="0" width="221" height="69" filterUnits="userSpaceOnUse" color-interpolation-filters="sRGB">
<feFlood flood-opacity="0" result="BackgroundImageFix"/>
<feColorMatrix in="SourceAlpha" type="matrix" values="0 0 0 0 0 0 0 0 0 0 0 0 0 0 0 0 0 0 127 0" result="hardAlpha"/>
<feOffset dx="4" dy="4"/>
<feGaussianBlur stdDeviation="2"/>
<feComposite in2="hardAlpha" operator="out"/>
<feColorMatrix type="matrix" values="0 0 0 0 0 0 0 0 0 0 0 0 0 0 0 0 0 0 0.15 0"/>
<feBlend mode="normal" in2="BackgroundImageFix" result="effect1_dropShadow_618_1558"/>
<feBlend mode="normal" in="SourceGraphic" in2="effect1_dropShadow_618_1558" result="shape"/>
</filter>
</defs>
</svg>
