<svg width="220" height="86" viewBox="0 0 220 86" fill="none" xmlns="http://www.w3.org/2000/svg">
<path d="M33.4296 5.86728C39.8522 2.22765 47.7142 2.22765 54.1368 5.86728L71.0542 15.4542C77.634 19.1829 81.7006 26.1616 81.7006 33.7245V52.2252C81.7006 59.788 77.634 66.7667 71.0542 70.4955L54.1368 80.0824C47.7142 83.722 39.8522 83.722 33.4296 80.0824L16.5122 70.4955C9.93245 66.7667 5.86584 59.788 5.86584 52.2252V33.7245C5.86584 26.1616 9.93245 19.1829 16.5122 15.4542L33.4296 5.86728Z" fill="#00CCFA"/>
<path d="M57.295 35.4629L43.9614 22.4217L30.6278 35.4629L43.9614 48.5041L57.295 35.4629Z" fill="white"/>
<path d="M70.1584 48.0433L56.9948 35.1682L43.831 48.0433L56.9947 60.9184L70.1584 48.0433Z" fill="#1D2FFA"/>
<path d="M44.0945 48.0428L30.9308 35.1677L17.7671 48.0428L30.9308 60.9178L44.0945 48.0428Z" fill="#1D2FFA"/>
<path d="M57.2964 50.0301L44.1327 37.155L30.969 50.0301L44.1327 62.9052L57.2964 50.0301Z" fill="#1D2FFA"/>
<path d="M109.387 37.8167C109.387 38.8833 109.801 39.7633 110.627 40.4567C111.481 41.15 112.534 41.6434 113.787 41.9367C115.041 42.2034 116.401 42.5501 117.867 42.9768C119.361 43.3768 120.734 43.8168 121.987 44.2968C123.241 44.7768 124.281 45.5768 125.107 46.6968C125.961 47.7902 126.387 49.1635 126.387 50.8169C126.388 53.1102 125.441 54.9902 123.548 56.4568C121.681 57.8968 119.068 58.6168 115.708 58.6167C112.348 58.6167 109.148 57.8967 106.108 56.4566L106.108 52.8966L106.308 52.8966C109.081 54.4433 112.241 55.2167 115.788 55.2167C120.454 55.2168 122.788 53.6702 122.787 50.5768C122.787 49.0568 121.654 47.9368 119.387 47.2168C118.401 46.8968 117.307 46.5901 116.107 46.2967C114.907 46.0034 113.694 45.6567 112.467 45.2567C111.267 44.8567 110.161 44.39 109.147 43.8567C108.161 43.2967 107.347 42.5366 106.707 41.5766C106.094 40.59 105.787 39.43 105.787 38.0966C105.787 35.7766 106.694 33.83 108.507 32.2567C110.347 30.6833 112.814 29.8967 115.907 29.8967C119.027 29.8968 121.841 30.3768 124.347 31.3368L124.347 34.7368L124.067 34.7368C121.561 33.7235 119.147 33.2168 116.827 33.2168C114.534 33.2167 112.721 33.63 111.387 34.4567C110.054 35.2567 109.387 36.3767 109.387 37.8167Z" fill="#12336E"/>
<path d="M142.036 40.937L136.236 40.937L136.236 53.017C136.236 54.137 136.543 54.8303 137.156 55.097C137.663 55.3103 138.316 55.417 139.116 55.417C139.916 55.417 140.796 55.2037 141.756 54.777L142.036 54.777L142.036 57.737C140.916 58.3237 139.716 58.617 138.436 58.617C134.543 58.6169 132.596 56.8569 132.596 53.3369L132.596 40.9369L128.796 40.9369L128.796 40.6969L136.236 33.417L136.236 37.817L142.036 37.817L142.036 40.937Z" fill="#12336E"/>
<path d="M146.987 38.9371C149.307 37.9238 151.787 37.4171 154.427 37.4172C157.094 37.4172 159.134 38.1906 160.547 39.7372C161.961 41.2839 162.667 43.1373 162.667 45.2973L162.668 58.2173L159.468 58.2172L159.028 55.6572L158.908 55.6572C156.988 57.6305 154.521 58.6172 151.508 58.6171C149.694 58.6171 148.148 58.0704 146.868 56.9771C145.614 55.8837 144.988 54.3904 144.988 52.4971C144.987 50.6037 145.761 49.0704 147.307 47.8971C148.881 46.7238 151.174 46.1371 154.187 46.1372L159.027 46.1372L159.027 45.8172C159.027 44.0572 158.587 42.7905 157.707 42.0172C156.854 41.2439 155.361 40.8572 153.227 40.8572C151.094 40.8571 149.094 41.3104 147.227 42.2171L146.987 42.2171L146.987 38.9371ZM159.028 52.4172L159.027 49.0572L154.667 49.0572C150.641 49.0571 148.627 50.1238 148.628 52.2571C148.628 54.3638 150.041 55.4171 152.868 55.4172C154.041 55.4172 155.174 55.1372 156.268 54.5772C157.361 53.9905 158.281 53.2705 159.028 52.4172Z" fill="#12336E"/>
<path d="M172.775 29.0174L172.775 58.2174L169.135 58.2173L169.135 29.0173L172.775 29.0174Z" fill="#12336E"/>
<path d="M179.761 38.9374C182.081 37.9241 184.561 37.4175 187.201 37.4175C189.867 37.4176 191.907 38.1909 193.321 39.7376C194.734 41.2843 195.441 43.1376 195.441 45.2976L195.441 58.2176L192.241 58.2176L191.801 55.6576L191.681 55.6576C189.761 57.6309 187.294 58.6175 184.281 58.6175C182.468 58.6175 180.921 58.0708 179.641 56.9774C178.388 55.8841 177.761 54.3908 177.761 52.4974C177.761 50.6041 178.534 49.0708 180.081 47.8974C181.654 46.7241 183.948 46.1375 186.961 46.1375L191.801 46.1376L191.801 45.8176C191.801 44.0576 191.361 42.7909 190.481 42.0176C189.627 41.2442 188.134 40.8575 186.001 40.8575C183.867 40.8575 181.867 41.3108 180.001 42.2174L179.761 42.2174L179.761 38.9374ZM191.801 52.4176L191.801 49.0576L187.441 49.0575C183.414 49.0575 181.401 50.1241 181.401 52.2575C181.401 54.3641 182.814 55.4175 185.641 55.4175C186.814 55.4175 187.948 55.1375 189.041 54.5775C190.134 53.9909 191.054 53.2709 191.801 52.4176Z" fill="#12336E"/>
<path d="M210.788 46.0178L219.989 58.2179L215.509 58.2178L208.308 48.5778L208.188 48.5778L205.228 51.5377L205.229 58.2177L201.589 58.2177L201.588 29.0177L205.228 29.0177L205.228 46.8977L205.348 46.8977L214.188 37.8178L219.068 37.8179L210.788 46.0178Z" fill="#12336E"/>
</svg>
