<svg width="29" height="29" viewBox="0 0 29 29" fill="none" xmlns="http://www.w3.org/2000/svg">
<path fill-rule="evenodd" clip-rule="evenodd" d="M2.4165 11.0092C2.4165 8.00166 2.4165 6.49729 3.00134 5.34937C3.51626 4.33841 4.33816 3.5165 5.34913 3.00158C6.49705 2.41675 8.00142 2.41675 11.0078 2.41675H17.9895C20.997 2.41675 22.5014 2.41675 23.6493 3.00158C24.6603 3.5165 25.4823 4.33841 25.9971 5.34937C26.5832 6.49729 26.5832 8.00166 26.5832 11.008V17.9897C26.5832 20.9973 26.5832 22.5017 25.9983 23.6496C25.4835 24.6606 24.6616 25.4825 23.6505 25.9974C22.5026 26.5822 20.9983 26.5822 17.9907 26.5822H11.0078C8.00021 26.5822 6.49584 26.5822 5.34792 25.9974C4.33696 25.4825 3.51505 24.6606 3.00013 23.6496C2.4165 22.5029 2.4165 20.9985 2.4165 17.9922V11.008V11.0092ZM8.76025 10.5319C7.67034 10.5319 6.91755 9.732 6.91755 8.75566C6.91755 7.75637 7.63167 6.91779 8.74213 6.91779C9.8538 6.91779 10.5063 7.75637 10.5268 8.75446C10.5268 9.73321 9.7378 10.5319 8.782 10.5319H8.76025ZM12.2487 11.9034C12.291 12.858 12.2487 22.0824 12.2487 22.0824H15.4109V16.3984C15.4109 16.0939 15.4943 15.7906 15.5801 15.5731C15.8145 14.9653 16.2954 14.4409 17.192 14.4409C18.3665 14.4409 18.938 15.2698 18.938 16.6364V22.0824H22.0821V16.2461C22.0821 12.7347 20.6019 11.6653 18.4656 11.6653C16.7437 11.6653 15.7251 12.6513 15.2853 13.3449V11.9034H12.2487ZM7.13988 22.0824H10.2767V11.9034H7.13988V22.0824Z" fill="#F0F0F0"/>
</svg>
