<svg width="12" height="21" viewBox="0 0 12 21" fill="none" xmlns="http://www.w3.org/2000/svg">
<path d="M3.27273 9.4C3.82501 9.4 4.27273 8.95228 4.27273 8.4V5.25C4.27273 4.13543 4.73238 3.05841 5.5638 2.25818C6.39651 1.45669 7.53378 1 8.72727 1H11V3.2H8.72727C8.1848 3.2 7.65721 3.40706 7.26242 3.78705C6.86632 4.1683 6.63636 4.6937 6.63636 5.25V8.4C6.63636 8.95228 7.08408 9.4 7.63636 9.4H10.7071L10.1356 11.6H7.63636C7.08408 11.6 6.63636 12.0477 6.63636 12.6V20H4.27273V12.6C4.27273 12.0477 3.82501 11.6 3.27273 11.6H1V9.4H3.27273Z" fill="#F0F0F0" stroke="#F0F0F0" stroke-width="2" stroke-linecap="round" stroke-linejoin="round"/>
</svg>
