<svg width="29" height="29" viewBox="0 0 29 29" fill="none" xmlns="http://www.w3.org/2000/svg">
<path fill-rule="evenodd" clip-rule="evenodd" d="M3.38196 6.06229C2.4165 7.74187 2.4165 9.993 2.4165 14.5001C2.4165 19.006 2.4165 21.2583 3.38196 22.9379C4.02233 24.0527 4.94719 24.9775 6.06205 25.618C7.74163 26.5834 9.99275 26.5834 14.4998 26.5834C19.0057 26.5834 21.258 26.5834 22.9376 25.618C24.0524 24.9775 24.9773 24.0527 25.6177 22.9379C26.5832 21.2583 26.5832 19.0072 26.5832 14.5001C26.5832 9.99421 26.5832 7.74187 25.6177 6.06229C24.9773 4.94743 24.0524 4.02257 22.9376 3.38221C21.258 2.41675 19.0069 2.41675 14.4998 2.41675C9.99396 2.41675 7.74163 2.41675 6.06205 3.38221C4.94719 4.02257 4.02233 4.94743 3.38196 6.06229ZM19.5652 24.0942C18.3605 24.203 16.7957 24.2054 14.4998 24.2054C12.204 24.2054 10.6392 24.203 9.4345 24.0942C8.26242 23.9891 7.6643 23.797 7.245 23.5565C6.49508 23.1258 5.87294 22.5036 5.44217 21.7537C5.2005 21.3344 5.00959 20.7363 4.90446 19.5642C4.79571 18.3595 4.7933 16.7947 4.7933 14.4989C4.7933 12.203 4.79571 10.6382 4.90446 9.43354C5.00959 8.26146 5.20171 7.66333 5.44217 7.24404C5.87294 6.49411 6.49508 5.87198 7.245 5.44121C7.6643 5.19954 8.26242 5.00862 9.4345 4.9035C10.6392 4.79475 12.204 4.79233 14.4998 4.79233C16.7957 4.79233 18.3605 4.79475 19.5652 4.9035C20.7373 5.00862 21.3354 5.20075 21.7535 5.44121C22.5038 5.87258 23.1261 6.49487 23.5575 7.24404C23.798 7.66333 23.9901 8.26146 24.0952 9.43354C24.204 10.6382 24.2064 12.203 24.2064 14.4989C24.2064 16.7947 24.204 18.3595 24.0952 19.5642C23.9901 20.7363 23.798 21.3344 23.5575 21.7525C23.1269 22.5029 22.5047 23.1254 21.7547 23.5565C21.3354 23.797 20.7373 23.9891 19.5652 24.0942ZM19.1737 8.19862C19.1737 7.76776 19.3449 7.35453 19.6495 7.04985C19.9541 6.74518 20.3674 6.57402 20.7983 6.57402C21.2292 6.57402 21.6424 6.74518 21.947 7.04985C22.2517 7.35453 22.4229 7.76776 22.4229 8.19862C22.4229 8.62933 22.2518 9.0424 21.9473 9.34696C21.6427 9.65152 21.2296 9.82262 20.7989 9.82262C20.3681 9.82262 19.9551 9.65152 19.6505 9.34696C19.346 9.0424 19.1737 8.62933 19.1737 8.19862ZM14.4998 8.19862C13.6725 8.19862 12.8532 8.36158 12.0888 8.6782C11.3245 8.99482 10.6299 9.45889 10.0449 10.0439C9.45986 10.629 8.99578 11.3235 8.67916 12.0879C8.36254 12.8523 8.19959 13.6715 8.19959 14.4989C8.19959 15.3262 8.36254 16.1455 8.67916 16.9099C8.99578 17.6743 9.45986 18.3688 10.0449 18.9539C10.6299 19.5388 11.3245 20.003 12.0888 20.3195C12.8532 20.6361 13.6725 20.7991 14.4998 20.7991C16.171 20.7991 17.7736 20.1353 18.9552 18.9536C20.1368 17.772 20.8007 16.1694 20.8007 14.4983C20.8007 12.8271 20.1368 11.2245 18.9552 10.0429C17.7736 8.86125 16.171 8.19862 14.4998 8.19862ZM10.7371 14.5001C10.7371 14.006 10.8344 13.5166 11.0235 13.0601C11.2126 12.6036 11.4898 12.1888 11.8392 11.8394C12.1885 11.49 12.6034 11.2128 13.0599 11.0238C13.5164 10.8347 14.0057 10.7373 14.4998 10.7373C14.9939 10.7373 15.4833 10.8347 15.9398 11.0238C16.3963 11.2128 16.8111 11.49 17.1605 11.8394C17.5099 12.1888 17.7871 12.6036 17.9762 13.0601C18.1653 13.5166 18.2626 14.006 18.2626 14.5001C18.2626 15.498 17.8661 16.455 17.1605 17.1607C16.4548 17.8664 15.4978 18.2628 14.4998 18.2628C13.5019 18.2628 12.5449 17.8664 11.8392 17.1607C11.1335 16.455 10.7371 15.498 10.7371 14.5001Z" fill="#F0F0F0"/>
</svg>
