<svg width="72" height="50" viewBox="0 0 72 50" fill="none" xmlns="http://www.w3.org/2000/svg">
<path d="M39.3919 12.3079L38.0933 11.0242C32.6797 5.67239 29.9729 2.99651 27.0396 3C26.081 3.00025 25.1324 3.19303 24.2514 3.56666C21.5553 4.71397 20.1399 8.22936 17.3093 15.2636L17.1041 15.7708C16.3009 17.7646 15.901 18.7615 15.2535 19.566C14.7647 20.1758 14.1763 20.7007 13.5127 21.1191C12.6387 21.6718 11.5949 21.9656 9.50733 22.5532C6.26978 23.4592 4.64924 23.9139 3.93096 24.8828C3.39758 25.602 3.16217 26.4953 3.27284 27.3803C3.42498 28.5731 4.61385 29.7519 6.99513 32.1025L18.07 43.0509C20.4513 45.405 21.6402 46.5838 22.8467 46.7307C23.7431 46.841 24.6483 46.6083 25.3766 46.0801C26.3567 45.37 26.8132 43.7715 27.7331 40.5674C28.3276 38.5036 28.6213 37.4718 29.1838 36.6078C29.606 35.952 30.1357 35.3704 30.7513 34.8868C31.5651 34.2502 32.5735 33.8514 34.5904 33.0574L35.107 32.8545C42.219 30.0562 45.775 28.6571 46.9355 25.9917C47.3135 25.1208 47.5085 24.183 47.5087 23.2353C47.5087 20.3321 44.8055 17.6597 39.3919 12.3079Z" stroke="#252525" stroke-width="5"/>
<path d="M3 47L12.5322 37.5767M69 11.5244H51.3085M69 27.2649H54.8468M69 43.0054H37.1553" stroke="#252525" stroke-width="5" stroke-linecap="round"/>
</svg>
