<svg width="66" height="66" viewBox="0 0 66 66" fill="none" xmlns="http://www.w3.org/2000/svg">
<path d="M29.7588 31.0344L29.7586 31.0344L29.7592 31.0464C29.8573 33.0965 30.7346 35.038 32.22 36.4684L49.1934 52.8609C44.7794 56.4643 39.1426 58.625 33 58.625C18.8477 58.625 7.375 47.1523 7.375 33C7.375 19.9485 17.1328 9.17538 29.7508 7.57899L29.75 30.6608H29.7499L29.7501 30.6728L29.7588 31.0344ZM63.75 33C63.75 16.0172 49.9828 2.25 33 2.25C16.0172 2.25 2.25 16.0172 2.25 33C2.25 49.9828 16.0172 63.75 33 63.75C49.9828 63.75 63.75 49.9828 63.75 33ZM52.8224 49.2404L37.9473 34.875L58.5575 34.8751C58.1646 40.3082 56.0781 45.2715 52.8224 49.2404ZM58.421 29.7508L34.875 29.75L34.8751 7.44254C47.0709 8.32438 56.9017 17.7425 58.421 29.7508Z" fill="#252525" stroke="#252525"/>
</svg>
