<svg width="66" height="56" viewBox="0 0 66 56" fill="none" xmlns="http://www.w3.org/2000/svg">
<path d="M12.2222 12.7273C12.2222 11.7245 12.4119 10.7314 12.7804 9.80496C13.149 8.87848 13.6891 8.03665 14.3701 7.32755C15.0511 6.61844 15.8595 6.05595 16.7492 5.67219C17.6389 5.28843 18.5925 5.09091 19.5556 5.09091C20.5186 5.09091 21.4722 5.28843 22.3619 5.67219C23.2516 6.05595 24.06 6.61844 24.741 7.32755C25.422 8.03665 25.9621 8.87848 26.3307 9.80496C26.6992 10.7314 26.8889 11.7245 26.8889 12.7273C26.8889 14.7526 26.1163 16.6949 24.741 18.127C23.3657 19.5591 21.5005 20.3636 19.5556 20.3636C17.6106 20.3636 15.7454 19.5591 14.3701 18.127C12.9948 16.6949 12.2222 14.7526 12.2222 12.7273ZM19.5556 0C16.314 0 13.2053 1.34091 10.9131 3.72773C8.62103 6.11456 7.33333 9.35179 7.33333 12.7273C7.33333 16.1028 8.62103 19.34 10.9131 21.7268C13.2053 24.1136 16.314 25.4545 19.5556 25.4545C22.7971 25.4545 25.9059 24.1136 28.198 21.7268C30.4901 19.34 31.7778 16.1028 31.7778 12.7273C31.7778 9.35179 30.4901 6.11456 28.198 3.72773C25.9059 1.34091 22.7971 0 19.5556 0ZM44 15.2727C44 13.9225 44.5151 12.6276 45.4319 11.6729C46.3488 10.7182 47.5923 10.1818 48.8889 10.1818C50.1855 10.1818 51.429 10.7182 52.3459 11.6729C53.2627 12.6276 53.7778 13.9225 53.7778 15.2727C53.7778 16.6229 53.2627 17.9178 52.3459 18.8725C51.429 19.8273 50.1855 20.3636 48.8889 20.3636C47.5923 20.3636 46.3488 19.8273 45.4319 18.8725C44.5151 17.9178 44 16.6229 44 15.2727ZM48.8889 5.09091C46.2957 5.09091 43.8086 6.16363 41.975 8.07309C40.1413 9.98256 39.1111 12.5723 39.1111 15.2727C39.1111 17.9731 40.1413 20.5629 41.975 22.4724C43.8086 24.3818 46.2957 25.4545 48.8889 25.4545C51.4821 25.4545 53.9691 24.3818 55.8028 22.4724C57.6365 20.5629 58.6667 17.9731 58.6667 15.2727C58.6667 12.5723 57.6365 9.98256 55.8028 8.07309C53.9691 6.16363 51.4821 5.09091 48.8889 5.09091ZM31.7778 30.5455C31.9147 30.5455 32.0564 30.5455 32.1933 30.5556C31.6311 32.2135 31.6363 34.0227 32.208 35.6771C32.066 35.6506 31.922 35.637 31.7778 35.6364H7.33333C6.68503 35.6364 6.06327 35.9045 5.60485 36.3819C5.14643 36.8593 4.88889 37.5067 4.88889 38.1818V38.6756L4.90844 38.9251C5.09777 40.5011 5.66615 42.0017 6.56089 43.288C8.15467 45.5687 11.6258 48.3636 19.5556 48.3636C26.4587 48.3636 29.9836 46.2458 31.8267 44.1891C32.0124 45.7876 32.6676 47.2284 33.6453 48.3636C33.1785 48.9056 32.7884 49.5141 32.4867 50.1709C29.5289 52.1207 25.3636 53.4545 19.5556 53.4545C10.3742 53.4545 5.28978 50.1251 2.60578 46.2815C1.20639 44.2693 0.326039 41.917 0.0488888 39.4495C0.0245501 39.2177 0.0082433 38.985 0 38.752V38.1818C0 36.1565 0.772617 34.2142 2.14788 32.7821C3.52315 31.35 5.38841 30.5455 7.33333 30.5455H31.7778ZM39.1111 30.5455C38.4628 30.5455 37.841 30.8136 37.3826 31.291C36.9242 31.7684 36.6667 32.4158 36.6667 33.0909C36.6667 33.766 36.9242 34.4135 37.3826 34.8908C37.841 35.3682 38.4628 35.6364 39.1111 35.6364H63.5556C64.2039 35.6364 64.8256 35.3682 65.284 34.8908C65.7425 34.4135 66 33.766 66 33.0909C66 32.4158 65.7425 31.7684 65.284 31.291C64.8256 30.8136 64.2039 30.5455 63.5556 30.5455H39.1111ZM39.1111 40.7273C38.4628 40.7273 37.841 40.9955 37.3826 41.4728C36.9242 41.9502 36.6667 42.5976 36.6667 43.2727C36.6667 43.9478 36.9242 44.5953 37.3826 45.0726C37.841 45.55 38.4628 45.8182 39.1111 45.8182H63.5556C64.2039 45.8182 64.8256 45.55 65.284 45.0726C65.7425 44.5953 66 43.9478 66 43.2727C66 42.5976 65.7425 41.9502 65.284 41.4728C64.8256 40.9955 64.2039 40.7273 63.5556 40.7273H39.1111ZM39.1111 50.9091C38.4628 50.9091 37.841 51.1773 37.3826 51.6546C36.9242 52.132 36.6667 52.7794 36.6667 53.4545C36.6667 54.1296 36.9242 54.7771 37.3826 55.2545C37.841 55.7318 38.4628 56 39.1111 56H63.5556C64.2039 56 64.8256 55.7318 65.284 55.2545C65.7425 54.7771 66 54.1296 66 53.4545C66 52.7794 65.7425 52.132 65.284 51.6546C64.8256 51.1773 64.2039 50.9091 63.5556 50.9091H39.1111Z" fill="#252525"/>
</svg>
