<svg width="178" height="80" viewBox="0 0 178 80" fill="none" xmlns="http://www.w3.org/2000/svg">
<path d="M33.9065 7.54202C37.2791 5.60579 41.4335 5.60579 44.8061 7.54202L64.9249 19.084C68.2975 21.0203 70.3747 24.5913 70.3747 28.4638V51.542C70.3747 55.4087 68.2975 58.9855 64.9249 60.9217L44.8061 72.4638C41.4335 74.4 37.2791 74.4 33.9065 72.4638L13.7877 60.9217C10.4151 58.9855 8.33789 55.4145 8.33789 51.542V28.458C8.33789 24.5913 10.4151 21.0145 13.7877 19.0782L33.9065 7.54202Z" fill="white"/>
<path d="M50.4076 33.7797L39.5021 22.9797L28.5967 33.7797L39.5021 44.5797L50.4076 33.7797Z" fill="#00CEFF"/>
<path d="M60.9278 44.197L50.1624 33.5361L44.0707 39.5651L39.642 35.1825L35.0733 39.7042L28.8416 33.5361L18.0703 44.197L28.8416 54.8579L33.4103 50.3361L39.642 56.5043L45.7337 50.4695L50.1624 54.8579L60.9278 44.197Z" fill="#261DFF"/>
<path d="M87.8565 34.2899C87.8565 35.0725 88.1599 35.7218 88.7726 36.232C89.4028 36.7421 90.1846 37.1015 91.1124 37.3218C92.0401 37.5189 93.0437 37.774 94.129 38.087C95.2318 38.3827 96.2471 38.7015 97.1749 39.0552C98.1026 39.4088 98.8728 39.9943 99.4855 40.8175C100.116 41.6233 100.431 42.632 100.431 43.8436C100.431 45.5305 99.7306 46.9102 98.3302 47.9885C96.9473 49.0494 95.0159 49.5769 92.5303 49.5769C90.0446 49.5769 87.6756 49.0494 85.4292 47.9885V45.374H85.575C87.6289 46.5102 89.9629 47.0783 92.5886 47.0783C96.0429 47.0783 97.7642 45.9421 97.7642 43.6697C97.7642 42.5508 96.924 41.7276 95.2493 41.2001C94.52 40.9624 93.7089 40.7421 92.822 40.5218C91.9351 40.3073 91.0365 40.0523 90.1321 39.7566C89.2452 39.461 88.4283 39.1189 87.6756 38.7305C86.9462 38.3189 86.3453 37.7624 85.8726 37.0552C85.4175 36.3305 85.1899 35.4783 85.1899 34.4986C85.1899 32.7943 85.861 31.3624 87.203 30.2088C88.5625 29.0552 90.3889 28.4754 92.6761 28.4754C94.9868 28.4754 97.064 28.8291 98.9195 29.5363V32.0349H98.7153C96.8598 31.2928 95.0743 30.916 93.3588 30.916C91.6609 30.916 90.3188 31.2175 89.3327 31.8262C88.3466 32.4117 87.8507 33.2349 87.8507 34.2957L87.8565 34.2899ZM112.007 36.5856H107.719V45.461C107.719 46.2841 107.946 46.7943 108.401 46.9914C108.775 47.1479 109.259 47.2291 109.854 47.2291C110.449 47.2291 111.097 47.0725 111.809 46.7595H112.013V48.9334C111.184 49.3624 110.298 49.5827 109.352 49.5827C106.47 49.5827 105.034 48.2899 105.034 45.7044V36.5914H102.222V36.4175L107.724 31.0668V34.3015H112.013V36.5972L112.007 36.5856ZM115.672 35.1131C117.387 34.3711 119.219 33.9943 121.174 33.9943C123.146 33.9943 124.657 34.5624 125.702 35.6986C126.746 36.8349 127.271 38.1972 127.271 39.7856V49.2812H124.902L124.576 47.3972H124.488C123.07 48.8465 121.244 49.5711 119.015 49.5711C117.673 49.5711 116.529 49.1711 115.584 48.3653C114.656 47.5595 114.195 46.4639 114.195 45.0725C114.195 43.6812 114.767 42.5566 115.911 41.6928C117.072 40.8291 118.77 40.4001 120.999 40.4001H124.581V40.1624C124.581 38.8696 124.255 37.9363 123.607 37.3682C122.977 36.8001 121.874 36.516 120.293 36.516C118.712 36.516 117.235 36.8465 115.852 37.5131H115.677V35.1015L115.672 35.1131ZM124.576 45.0204V42.5508H121.349C118.373 42.5508 116.879 43.3334 116.879 44.9044C116.879 46.4754 117.924 47.2291 120.013 47.2291C120.882 47.2291 121.717 47.0262 122.528 46.6146C123.339 46.1856 124.015 45.6523 124.57 45.0262L124.576 45.0204ZM134.746 27.8262V49.287H132.056V27.8262H134.746ZM139.916 35.1189C141.631 34.3769 143.463 34.0001 145.418 34.0001C147.39 34.0001 148.901 34.5682 149.946 35.7044C150.99 36.8407 151.515 38.203 151.515 39.7914V49.287H149.146L148.82 47.403H148.732C147.314 48.8523 145.488 49.5769 143.259 49.5769C141.917 49.5769 140.773 49.1769 139.828 48.3711C138.9 47.5653 138.439 46.4697 138.439 45.0783C138.439 43.687 139.011 42.5624 140.155 41.6986C141.316 40.8349 143.014 40.4059 145.243 40.4059H148.826V40.1682C148.826 38.8754 148.499 37.9421 147.851 37.374C147.221 36.8059 146.118 36.5218 144.537 36.5218C142.961 36.5218 141.479 36.8523 140.097 37.5189H139.921V35.1073L139.916 35.1189ZM148.82 45.0262V42.5566H145.593C142.617 42.5566 141.123 43.3392 141.123 44.9102C141.123 46.4812 142.168 47.2349 144.257 47.2349C145.126 47.2349 145.961 47.032 146.772 46.6204C147.583 46.1914 148.26 45.6581 148.814 45.032L148.82 45.0262ZM162.864 40.3247L169.668 49.2928H166.354L161.026 42.2088H160.939L158.751 44.3827V49.2928H156.061V27.8262H158.751V40.9682H158.838L165.379 34.2957H168.991L162.864 40.3189V40.3247Z" fill="white"/>
</svg>
